<svg class="animated" id="freepik_stories-visual-data" xmlns="http://www.w3.org/2000/svg" viewBox="0 0 500 500" version="1.1" xmlns:xlink="http://www.w3.org/1999/xlink" xmlns:svgjs="http://svgjs.com/svgjs"><style>svg#freepik_stories-visual-data:not(.animated) .animable {opacity: 0;}svg#freepik_stories-visual-data.animated #freepik--Gears--inject-22 {animation: 3s Infinite  linear floating;animation-delay: 0s;}svg#freepik_stories-visual-data.animated #freepik--screen-2--inject-22 {animation: 3s Infinite  linear floating;animation-delay: 0s;}            @keyframes floating {                0% {                    opacity: 1;                    transform: translateY(0px);                }                50% {                    transform: translateY(-10px);                }                100% {                    opacity: 1;                    transform: translateY(0px);                }            }        .animator-hidden { display: none; }</style><g id="freepik--Floor--inject-22" class="animable animator-hidden" style="transform-origin: 252.63px 356.9px;"><g id="freepik--floor--inject-22" class="animable" style="transform-origin: 252.63px 356.9px;"><ellipse cx="252.63" cy="356.9" rx="240.08" ry="122.65" style="fill: rgb(245, 245, 245); transform-origin: 252.63px 356.9px;" id="els8e99hveefg" class="animable"></ellipse></g></g><g id="freepik--Shadow--inject-22" class="animable animator-hidden" style="transform-origin: 250.176px 367.098px;"><path id="freepik--shadow--inject-22" d="M96.63,340.16c16.45,9.27,16.62,24.58.36,34.21s-42.78,9.9-59.24.64-16.63-24.59-.37-34.21S80.17,330.89,96.63,340.16Z" style="fill: rgb(224, 224, 224); transform-origin: 67.1856px 357.585px;" class="animable"></path><path id="freepik--shadow--inject-22" d="M461.65,356c17.72,10,17.9,26.47.4,36.83s-46.05,10.66-63.77.69-17.9-26.47-.4-36.83S443.94,346,461.65,356Z" style="fill: rgb(224, 224, 224); transform-origin: 429.965px 374.754px;" class="animable"></path></g><g id="freepik--Gears--inject-22" class="animable" style="transform-origin: 352.89px 70.3783px;"><g id="freepik--gears--inject-22" class="animable" style="transform-origin: 352.89px 70.3783px;"><path d="M334.19,90.89l-.22,0-2.21-.34a1.27,1.27,0,0,1-.88-.56,1.31,1.31,0,0,1-.13-1L332,84.85a1,1,0,0,0-.3-.86,8.94,8.94,0,0,1-.66-.71.35.35,0,0,0-.5-.1l-2.77,2.1a1.06,1.06,0,0,1-1,.19,1.08,1.08,0,0,1-.66-.79l-.75-3.13a2.25,2.25,0,0,1,.51-1.91l2.73-2.86a2.19,2.19,0,0,0,.48-1.17,19.12,19.12,0,0,1,.23-2.2.57.57,0,0,0-.34-.59l-1.75-.61a1.37,1.37,0,0,1-.77-.69,1.34,1.34,0,0,1,0-1l1.68-4.57a1.83,1.83,0,0,1,1.62-1.14l2.11,0a1.18,1.18,0,0,0,.87-.52c.45-.75.92-1.48,1.42-2.15a2.06,2.06,0,0,0,.32-1.19l-.41-3.1a2.33,2.33,0,0,1,.69-1.86l3.11-2.8a1,1,0,0,1,1.73.43l.9,2.4a.28.28,0,0,0,.14.16.32.32,0,0,0,.25,0,10.52,10.52,0,0,1,1.38-.56,1.69,1.69,0,0,0,.88-.75l1.8-4.05a1.67,1.67,0,0,1,1.72-.94l2.22.34a1.23,1.23,0,0,1,.87.56,1.26,1.26,0,0,1,.14,1l-1.22,4.1a1,1,0,0,0,.29.86,5.67,5.67,0,0,1,.67.71.36.36,0,0,0,.5.1l2.77-2.1a1,1,0,0,1,1.66.59l.76,3.13a2.24,2.24,0,0,1-.52,1.92L352,63.87a2.15,2.15,0,0,0-.48,1.17,18.73,18.73,0,0,1-.23,2.19.56.56,0,0,0,.34.59l1.75.62a1.33,1.33,0,0,1,.81,1.73l-1.69,4.56a1.83,1.83,0,0,1-1.61,1.15l-2.11,0a1.21,1.21,0,0,0-.87.53c-.45.75-.92,1.47-1.42,2.15a2,2,0,0,0-.32,1.19l.4,3.1a2.31,2.31,0,0,1-.68,1.86l-3.11,2.79a1,1,0,0,1-1.73-.42l-.9-2.41a.26.26,0,0,0-.14-.15.32.32,0,0,0-.25,0,12.11,12.11,0,0,1-1.38.56,1.7,1.7,0,0,0-.89.75l-1.79,4.05A1.69,1.69,0,0,1,334.19,90.89Zm-3.49-8.76a1.38,1.38,0,0,1,1.08.53,5.36,5.36,0,0,0,.56.6,1.94,1.94,0,0,1,.57,1.86l-1.21,4.1a.24.24,0,0,0,0,.22.23.23,0,0,0,.19.11l2.21.35a.7.7,0,0,0,.68-.37l1.8-4a2.66,2.66,0,0,1,1.47-1.29,8.32,8.32,0,0,0,1.26-.51,1.3,1.3,0,0,1,1-.05,1.26,1.26,0,0,1,.7.73l.9,2.4c0,.07,0,.1.06.1a.22.22,0,0,0,.09-.06L345.23,84a1.37,1.37,0,0,0,.37-1l-.4-3.11a2.93,2.93,0,0,1,.5-1.89c.47-.65.93-1.35,1.36-2.07a2.16,2.16,0,0,1,1.7-1l2.11,0a.84.84,0,0,0,.71-.5l1.69-4.57a.36.36,0,0,0,0-.27.34.34,0,0,0-.21-.18l-1.75-.62a1.54,1.54,0,0,1-1-1.67c.11-.71.18-1.41.22-2.09a3.13,3.13,0,0,1,.75-1.8L354,60.33a1.28,1.28,0,0,0,.27-1h0l-.75-3.13a.41.41,0,0,0,0-.09l-.08,0-2.77,2.1a1.32,1.32,0,0,1-1.86-.27,6.4,6.4,0,0,0-.56-.6,1.93,1.93,0,0,1-.57-1.86l1.21-4.1a.24.24,0,0,0,0-.22.25.25,0,0,0-.19-.11l-2.22-.34a.7.7,0,0,0-.67.37L344,55.17a2.64,2.64,0,0,1-1.47,1.28,11.08,11.08,0,0,0-1.26.51,1.26,1.26,0,0,1-1,0,1.21,1.21,0,0,1-.7-.72l-.9-2.41c0-.06,0-.09-.06-.09a.22.22,0,0,0-.09.06l-3.11,2.79a1.37,1.37,0,0,0-.37,1l.4,3.1a3,3,0,0,1-.5,1.9c-.47.65-.93,1.35-1.36,2.07a2.18,2.18,0,0,1-1.7,1l-2.12,0a.86.86,0,0,0-.7.5l-1.69,4.57a.39.39,0,0,0,0,.28.37.37,0,0,0,.21.18l1.75.61a1.57,1.57,0,0,1,1,1.68,19.27,19.27,0,0,0-.22,2.09,3.13,3.13,0,0,1-.75,1.8l-2.72,2.86a1.21,1.21,0,0,0-.27,1l.75,3.13a.19.19,0,0,0,0,.09l.08-.05,2.77-2.1A1.28,1.28,0,0,1,330.7,82.13Zm7-2.68a4.09,4.09,0,0,1-1.17-.17,4.32,4.32,0,0,1-2.78-3.36c-.93-3.84,1.15-9.51,4.63-12.64,1.94-1.74,4-2.44,5.72-1.91a4.32,4.32,0,0,1,2.79,3.36c.92,3.84-1.15,9.5-4.63,12.63h0A7.09,7.09,0,0,1,337.66,79.45Zm5.23-17.27A6.14,6.14,0,0,0,339,64c-3.24,2.91-5.18,8.14-4.34,11.67a3.35,3.35,0,0,0,2.12,2.65c1.37.42,3.1-.2,4.78-1.71,3.24-2.91,5.18-8.15,4.33-11.67a3.32,3.32,0,0,0-2.12-2.65A2.84,2.84,0,0,0,342.89,62.18Z" style="fill: #AEDCFF; transform-origin: 340.34px 70.3783px;" id="elktb6beubui" class="animable"></path><path d="M366.49,79.32h-.15l-1.46-.22a.91.91,0,0,1-.63-.41.89.89,0,0,1-.09-.73l.8-2.7a.56.56,0,0,0-.17-.48,4,4,0,0,1-.45-.47.17.17,0,0,0-.22-.06l-1.82,1.38a.74.74,0,0,1-1.22-.43l-.49-2.06A1.55,1.55,0,0,1,361,71.8l1.79-1.88a1.36,1.36,0,0,0,.29-.72,12.75,12.75,0,0,1,.15-1.45.29.29,0,0,0-.17-.3l-1.15-.4a1,1,0,0,1-.55-.5,1,1,0,0,1,0-.74l1.11-3a1.28,1.28,0,0,1,1.13-.8l1.38,0a.74.74,0,0,0,.51-.31c.29-.49.61-1,.94-1.42a1.2,1.2,0,0,0,.19-.73l-.26-2a1.58,1.58,0,0,1,.48-1.28l2-1.84a.76.76,0,0,1,1.26.31l.59,1.58c.08.07.11.06.15.05a7.79,7.79,0,0,1,.92-.38,1.06,1.06,0,0,0,.53-.44l1.18-2.67a1.18,1.18,0,0,1,1.22-.66l1.45.22a.94.94,0,0,1,.63.41.89.89,0,0,1,.09.73l-.79,2.7a.56.56,0,0,0,.17.48,5,5,0,0,1,.44.47.16.16,0,0,0,.22.06l1.82-1.38a.78.78,0,0,1,.74-.14.76.76,0,0,1,.48.57l.49,2.06a1.54,1.54,0,0,1-.35,1.33l-1.79,1.88a1.3,1.3,0,0,0-.3.72,12.52,12.52,0,0,1-.15,1.45.29.29,0,0,0,.17.3l1.15.4a1,1,0,0,1,.55.5,1,1,0,0,1,0,.74l-1.11,3a1.28,1.28,0,0,1-1.13.8l-1.38,0a.72.72,0,0,0-.51.3c-.29.49-.61,1-.93,1.42a1.21,1.21,0,0,0-.2.73l.26,2a1.64,1.64,0,0,1-.47,1.29l-2,1.83a.8.8,0,0,1-.72.2.78.78,0,0,1-.55-.51l-.59-1.58c-.08-.07-.11-.06-.15,0a7,7,0,0,1-.91.38,1,1,0,0,0-.54.44l-1.18,2.67A1.18,1.18,0,0,1,366.49,79.32Zm-2.29-5.91a1,1,0,0,1,.77.38,2.69,2.69,0,0,0,.36.39,1.35,1.35,0,0,1,.39,1.3l-.79,2.69.07.12,1.46.23a.37.37,0,0,0,.36-.2L368,75.66a1.78,1.78,0,0,1,1-.88,7.67,7.67,0,0,0,.81-.33.9.9,0,0,1,.75,0,.88.88,0,0,1,.5.52l.59,1.58,2-1.84a.85.85,0,0,0,.22-.59l-.26-2a2,2,0,0,1,.34-1.3c.31-.43.61-.89.89-1.36a1.49,1.49,0,0,1,1.18-.69l1.39,0a.48.48,0,0,0,.39-.28l1.11-3a.16.16,0,0,0,0-.12.18.18,0,0,0-.09-.08l-1.15-.4a1.11,1.11,0,0,1-.7-1.19,13.07,13.07,0,0,0,.14-1.36,2.13,2.13,0,0,1,.52-1.24l1.79-1.87a.79.79,0,0,0,.16-.59h0l-.5-2.06-1.78,1.4a1,1,0,0,1-1.32-.19,4.59,4.59,0,0,0-.37-.39,1.35,1.35,0,0,1-.39-1.3l.8-2.69,0-.52-.06.4L374.52,53a.37.37,0,0,0-.36.2L373,55.81a1.84,1.84,0,0,1-1,.89,4.93,4.93,0,0,0-.81.33.93.93,0,0,1-.75,0,.88.88,0,0,1-.5-.52L369.31,55l-2,1.84a.85.85,0,0,0-.22.59l.27,2a2,2,0,0,1-.35,1.3c-.31.43-.61.89-.89,1.36a1.53,1.53,0,0,1-1.18.7l-1.39,0a.48.48,0,0,0-.39.28l-1.11,3a.16.16,0,0,0,0,.12.18.18,0,0,0,.09.08l1.15.4a1.11,1.11,0,0,1,.7,1.19,13.07,13.07,0,0,0-.14,1.36,2.16,2.16,0,0,1-.51,1.24l-1.8,1.87a.8.8,0,0,0-.16.6l.5,2,1.78-1.4A1,1,0,0,1,364.2,73.41Zm4.57-1.6a2.61,2.61,0,0,1-.79-.12,2.9,2.9,0,0,1-1.88-2.26c-.61-2.55.76-6.31,3.07-8.38A4.11,4.11,0,0,1,373,59.78,2.9,2.9,0,0,1,374.88,62c.62,2.55-.76,6.31-3.06,8.38h0A4.75,4.75,0,0,1,368.77,71.81Zm3.44-11.35a3.94,3.94,0,0,0-2.51,1.19c-2.11,1.89-3.38,5.3-2.82,7.59a2.12,2.12,0,0,0,1.34,1.69,3.38,3.38,0,0,0,3.06-1.11h0c2.11-1.89,3.38-5.3,2.83-7.59a2.14,2.14,0,0,0-1.35-1.69A2,2,0,0,0,372.21,60.46Z" style="fill: #AEDCFF; transform-origin: 370.515px 65.7657px;" id="elkohvm3z1s9" class="animable"></path></g></g><g id="freepik--character-2--inject-22" class="animable animator-hidden" style="transform-origin: 58.3204px 255.17px;"><g id="freepik--Character--inject-22" class="animable" style="transform-origin: 58.3204px 255.17px;"><path d="M98.32,353.48a2.44,2.44,0,0,1-.54,2.66A13.38,13.38,0,0,1,88.67,358c-4.52-.54-7-1.81-8.77-3.19s-4.35-3.33-6.39-3.74a13,13,0,0,1-4.57-1.7c-.61-.54-.53-2.92-.53-2.92Z" style="fill: rgb(38, 50, 56); transform-origin: 83.4547px 352.304px;" id="el6i0caghon4f" class="animable"></path><path d="M70.22,337.33a.72.72,0,0,0-.69.55c-.14.66-.29,2.56-.59,3.64a17.68,17.68,0,0,0-.44,5.78c.25,1.22,3.34,2.07,5.32,2.76a25.35,25.35,0,0,1,6.41,3.69A19.28,19.28,0,0,0,89.77,357c3.49,0,7.41-1.06,8.31-2.53,1.12-1.82.24-2.88-4.92-5.06-1-.42-4.42-2.27-5.59-2.94-3.17-1.82-6.31-4.35-7.77-7.57a1.79,1.79,0,0,0-.74-1,1.81,1.81,0,0,0-1-.09,8.79,8.79,0,0,0-2.48.69c-.7.3-1.68.65-1.67,1.46a2.66,2.66,0,0,0,.2.82c.06.17.11.39,0,.48s-.35,0-.48-.12a13.42,13.42,0,0,1-1.4-1.52,4.86,4.86,0,0,0-.81-.76,8.7,8.7,0,0,1-.89-.53C70.16,338.06,70.23,337.7,70.22,337.33Z" style="fill: rgb(55, 71, 79); transform-origin: 83.47px 347.165px;" id="elbew3lh1iep9" class="animable"></path><path d="M80.23,353.75a33.34,33.34,0,0,0-2.82-1.92h0s6.08,3.37,8.54,1.84a1.89,1.89,0,0,0,.79-2.56c0-.38,3.21-2.36,4.75-2.52l2,.8c5.17,2.19,5.75,3.26,4.63,5.08-.9,1.47-3.74,2.62-8.25,2.62A19.8,19.8,0,0,1,80.23,353.75Z" style="fill: rgb(69, 90, 100); transform-origin: 88.0043px 352.84px;" id="el76i64fi31jg" class="animable"></path><path d="M52.65,360.74a11.93,11.93,0,0,1-1,6.43c-.91,1.73-2.9,2.43-5,2.14s-4.94-1.32-5.8-3.67A14.14,14.14,0,0,1,40,359Z" style="fill: rgb(38, 50, 56); transform-origin: 46.3253px 364.187px;" id="elw2daogfd52h" class="animable"></path><path d="M42.14,341.33c-.85.14-.69,3.9-.77,7.69-.08,4.06-1.22,5.84-1.33,9.18-.12,3.81.28,5.47,2,7.61s7.09,3.9,9.26.41c1.77-2.84,1.53-5.79.93-9.53A85.55,85.55,0,0,1,51,347.15c-.15-2.83-.23-5.58-1-5.82,0,.41,0,.94,0,1.36s.07,1.84-.41,1.9a5.3,5.3,0,0,1-.12-1.06,1.19,1.19,0,0,0-.34-.88,1.68,1.68,0,0,0-1-.3,25,25,0,0,0-2.59-.13c-.43,0-.86,0-1.29.07a3.87,3.87,0,0,0-1.07.24.72.72,0,0,0-.42.42,1.3,1.3,0,0,0,0,.44,2.91,2.91,0,0,1,0,.78c0,.11-.09.26-.21.24s-.16-.12-.17-.21c0-.46,0-.79-.06-1.32,0-.25,0-.58,0-.83S42.15,341.57,42.14,341.33Z" style="fill: rgb(55, 71, 79); transform-origin: 46.3468px 354.765px;" id="elge0ndgmkngf" class="animable"></path><path d="M40.12,357.11c0,.55-.13,4.19,1,4.74s2-2.26,2-2.26a8.94,8.94,0,0,1,6.06-.15c.13.83,1,2.79,2,2.29s1-4.66,1-4.72c.56,3.59.74,6.45-1,9.21-2.17,3.49-7.55,1.73-9.26-.41s-2.1-3.8-2-7.61C40.06,357.82,40.08,357.46,40.12,357.11Z" style="fill: rgb(69, 90, 100); transform-origin: 46.2383px 362.605px;" id="el0r8vjla8rkj" class="animable"></path><path d="M47.32,225.6A53.45,53.45,0,0,0,43.21,241C41.72,260.34,41,288.4,41,288.4c-.18,2-1.46,6.61-2.32,15.5-1,10.51,1.81,45.79,1.81,45.79s6.29,3.75,11.18-.52c0,0,5.68-48.93,7-59.38C59.8,280.68,63,261,63,261l2.47,30.16s-.35,8.2-.1,13.5c.28,6.17,3.29,36.58,3.29,36.58s8.64,2.93,12.5-1.22c0,0,.91-43.58,1-51,.26-14.55-.5-41.69-1-56.48Z" style="fill: #AEDCFF; transform-origin: 60.3388px 288.406px;" id="elu2378y1qcr" class="animable"></path><g id="elzejfgq2y3l9"><path d="M47.32,225.6A53.45,53.45,0,0,0,43.21,241C41.72,260.34,41,288.4,41,288.4c-.18,2-1.46,6.61-2.32,15.5-1,10.51,1.81,45.79,1.81,45.79s6.29,3.75,11.18-.52c0,0,5.68-48.93,7-59.38C59.8,280.68,63,261,63,261l2.47,30.16s-.35,8.2-.1,13.5c.28,6.17,3.29,36.58,3.29,36.58s8.64,2.93,12.5-1.22c0,0,.91-43.58,1-51,.26-14.55-.5-41.69-1-56.48Z" style="opacity: 0.35; transform-origin: 60.3388px 288.406px;" class="animable" id="el8xjpmb4nt2w"></path></g><g id="elyicn5fyamc"><path d="M63,261l1.35-9.28s7.84-1.05,11.39-4.39a12.88,12.88,0,0,1-9.24,5.84l-1.38,8.39-.1,26.1Z" style="opacity: 0.2; transform-origin: 69.37px 267.495px;" class="animable" id="el19wws6joibfi"></path></g><path d="M87,228.29l-5.72,6.36s-4.67-5.83-4.49-5.83,5.39-8.57,5.39-8.57Z" style="fill: rgb(177, 102, 104); transform-origin: 81.8925px 227.45px;" id="el5fnh7z6p094" class="animable"></path><path d="M72.92,182.41c7.64,2.17,7.73,1.66,12.57,8.1,3.36,4.47,10.05,12.75,12,16.16,2.22,3.84,2.52,5.4.79,8.28S87,228.74,87,228.74c-2.3-1.8-4.84-3.47-6.13-6.71L87,211.79,74.34,198.73Z" style="fill: rgb(69, 90, 100); transform-origin: 86.1572px 205.575px;" id="el7kmr3dgqt1f" class="animable"></path><path d="M52,150.14a3.86,3.86,0,0,0-.46.09,2.12,2.12,0,0,0-1.13-2.39,2.28,2.28,0,0,0-2.94,1.21l3.21,1.47a4.46,4.46,0,0,0-2.45,2.08c-.87,1.81.28,5.66,1.46,10.41a68.13,68.13,0,0,0,2.58,8.81c.54,1.38,1.51,1.43,1.51,1.43V168.5l-.21-3.93s2.53-3.44,2.81-6.27c.35-3.63-.41-5.12-.41-5.12Z" style="fill: rgb(38, 50, 56); transform-origin: 51.9711px 160.463px;" id="elihfseib10f" class="animable"></path><path d="M69.42,146.06a8,8,0,1,0,8,8A8,8,0,0,0,69.42,146.06Z" style="fill: rgb(38, 50, 56); transform-origin: 69.42px 154.06px;" id="elfh2cg3kxoyi" class="animable"></path><path d="M53.69,163.94c-.95.83-1.72-1.3-2.52-2.13s-3.39-2-4.68.77,1.19,6.57,3.13,7.47a3,3,0,0,0,4.13-1.55v11.87c3,5.4,8.76,4.34,11.83,5.1.56-2.19,1-3.22.73-4.44l0-3.86a14.59,14.59,0,0,0,3.92.21c2.59-.41,4-2.54,4.75-5.35,1.25-4.51,1.51-12.08-.22-20.83-2.9-2.24-12.72-1.88-18.8,2C56.38,160.94,54.64,163.12,53.69,163.94Z" style="fill: rgb(177, 102, 104); transform-origin: 61.0605px 167.644px;" id="eleg9d6ryjwwk" class="animable"></path><path d="M64.51,162.08a1.22,1.22,0,1,1-1.21-1.21A1.21,1.21,0,0,1,64.51,162.08Z" style="fill: rgb(38, 50, 56); transform-origin: 63.29px 162.09px;" id="elqtil2cbyqv" class="animable"></path><path d="M73.71,161.62a1.22,1.22,0,1,1-1.21-1.21A1.21,1.21,0,0,1,73.71,161.62Z" style="fill: rgb(38, 50, 56); transform-origin: 72.49px 161.63px;" id="elyjullu8ahte" class="animable"></path><path d="M66.29,177.17S60.51,176,58.48,175a6.64,6.64,0,0,1-2.8-2.75,9,9,0,0,0,1.6,3.25c1.48,1.89,9,3.26,9,3.26Z" style="fill: rgb(154, 74, 77); transform-origin: 60.985px 175.505px;" id="el0v8oq5m4xrx" class="animable"></path><path d="M76.71,145a2.89,2.89,0,0,1,0-.29,1,1,0,0,0-.19-.5c-.39-.41-1.17.61-1.45.85a10.31,10.31,0,0,1-.83.65,5.54,5.54,0,0,0-.78.46,8.19,8.19,0,0,0,0-2.92c-.12-.63-.3-2.11-1.09-2.27-.47-.09-.88.3-1.23.63-3.16,3-7.3,1.59-11.11,1.71-3.19.1-7,1.4-8.48,4.5-.66,1.42-.77,2.92.53,3.9.84.63,1.66.6,2.13,1.61.12.25.85,3.27.42,3.24a3.31,3.31,0,0,0,3.55-2.43c.08-.33.26-.93.33-1.27a.71.71,0,0,1,.91-.55c1,.21,1.6.6,2.51.86a18.39,18.39,0,0,0,8,.47A9.46,9.46,0,0,0,75,151,7.61,7.61,0,0,0,76.71,145Z" style="fill: rgb(38, 50, 56); transform-origin: 63.9305px 148.778px;" id="el2j111ajt2fo" class="animable"></path><path d="M62.84,158.65l-2.37,1.54a1.49,1.49,0,0,1,.43-2A1.37,1.37,0,0,1,62.84,158.65Z" style="fill: rgb(38, 50, 56); transform-origin: 61.5471px 159.077px;" id="elk3q2lvuomvi" class="animable"></path><path d="M64.58,169.6l3.92,1a2,2,0,0,1-2.43,1.51A2.11,2.11,0,0,1,64.58,169.6Z" style="fill: rgb(154, 74, 77); transform-origin: 66.5127px 170.884px;" id="elmp8cf3wgr9" class="animable"></path><path d="M66.8,172.18a2.1,2.1,0,0,0-2.08-1.87l-.17,0a2.06,2.06,0,0,0,1.52,1.8A1.82,1.82,0,0,0,66.8,172.18Z" style="fill: rgb(242, 143, 143); transform-origin: 65.675px 171.25px;" id="elcmysxhlgl1n" class="animable"></path><path d="M74.71,159.45l-2.59-1.2a1.37,1.37,0,0,1,1.85-.73A1.5,1.5,0,0,1,74.71,159.45Z" style="fill: rgb(38, 50, 56); transform-origin: 73.4725px 158.421px;" id="elqp1ctw1nac" class="animable"></path><polygon points="67.39 160.41 68.08 168.2 72.12 166.76 67.39 160.41" style="fill: rgb(154, 74, 77); transform-origin: 69.755px 164.305px;" id="eltorxawggu9g" class="animable"></polygon><path d="M48.62,180.37A100.16,100.16,0,0,0,38,185.47s1.3,13.26,3.47,21.78c1.59,6.2,2.47,27.69,2.47,27.69a49.37,49.37,0,0,0,22.39,3.58,45.2,45.2,0,0,0,15.12-3.47s.5-13.51-.46-30.41c-.71-12.44-1.18-19-4.2-20.81-1.8-1.09-9.51-2.93-9.51-2.93a13.65,13.65,0,0,1-1.67,4.57C62.87,184.1,48.62,180.37,48.62,180.37Z" style="fill: rgb(55, 71, 79); transform-origin: 59.7901px 209.511px;" id="elxn0j2qpalml" class="animable"></path><path d="M68,238.38c.64-.06,1.26-.14,1.86-.22.79-8.94,1.8-30.18-4.25-52.69C65.58,185.47,70.67,212,68,238.38Z" style="fill: rgb(38, 50, 56); transform-origin: 68.0345px 211.925px;" id="el82d8ucx8fli" class="animable"></path><path d="M65.58,185.47c2.29-1.51,4.16,2.31,4.55,1.72s-2-9-3.83-9.46V181A26.89,26.89,0,0,1,65.58,185.47Z" style="fill: rgb(69, 90, 100); transform-origin: 67.8761px 182.491px;" id="elsy1xf5jvrrl" class="animable"></path><path d="M53.75,175.35v.93c.18.89,1.92,2.94,6.32,4.92s5.51,4.27,5.51,4.27-1-.59-2.77.44-3.7,3.91-4.65,3.89-3.89-3.3-6.38-5.92c-2.1-2.19-3.16-3.51-3.16-3.51S52,175.37,53.75,175.35Z" style="fill: rgb(69, 90, 100); transform-origin: 57.1px 182.575px;" id="el3z2fphizj2c" class="animable"></path><path d="M54.18,240.36v29.88a.62.62,0,0,1-.24.56l-1.35.78a.38.38,0,0,1-.21.05.89.89,0,0,1-.39-.11L18.12,252a1.94,1.94,0,0,1-.87-1.52V220.6a.62.62,0,0,1,.24-.56l.06,0h0l1.27-.75a.51.51,0,0,1,.22-.06.92.92,0,0,1,.39.12l17.76,10.24,2.1,1.21s2.58,1.49,3.14,1.8l.08.05,10.78,6.22a1,1,0,0,1,.18.13,1.78,1.78,0,0,1,.44.53A1.74,1.74,0,0,1,54.18,240.36Z" style="fill: #AEDCFF; transform-origin: 35.715px 245.43px;" id="elvt044gsop1c" class="animable"></path><g id="elevhu9mrv4ti"><path d="M53.93,239.5l-1.31.76h0l-.13-.2a2,2,0,0,0-.31-.33.68.68,0,0,0-.18-.13l-10.77-6.21c-.27-.16-2.7-1.56-3.19-1.83l-1.3-.75L18.14,220.09a.61.61,0,0,0-.57-.08l1.27-.75a.51.51,0,0,1,.22-.06.77.77,0,0,1,.39.12l17.76,10.24,2.1,1.21s2.58,1.49,3.14,1.8l.08.05,10.78,6.22a1,1,0,0,1,.18.13A1.78,1.78,0,0,1,53.93,239.5Z" style="fill: rgb(255, 255, 255); opacity: 0.5; transform-origin: 35.75px 229.73px;" class="animable" id="el7gdypo1m2co"></path></g><path d="M17.26,220.59v29.85a1.94,1.94,0,0,0,.87,1.52l34,19.61a.52.52,0,0,0,.78-.45v-30a1.75,1.75,0,0,0-.26-.86,1.83,1.83,0,0,0-.61-.65l-10.78-6.23L38,231.56,18.14,220.09a.65.65,0,0,0-.57-.09l0,0h0A.64.64,0,0,0,17.26,220.59Z" style="fill: #AEDCFF; transform-origin: 35.0844px 245.805px;" id="eldnsr254fxa6" class="animable"></path><path d="M52.62,240.26h0l-.13-.2A1.43,1.43,0,0,1,52.62,240.26Z" style="fill: #AEDCFF; transform-origin: 52.555px 240.16px;" id="elrgkekpjmemj" class="animable"></path><g id="eljqjcukm0fpe"><path d="M52.55,271.6h0L54,270.8a.66.66,0,0,0,.23-.56V240.36a1.79,1.79,0,0,0-.26-.87l-1.31.77h0a1.75,1.75,0,0,1,.26.86v30A.52.52,0,0,1,52.55,271.6Z" style="opacity: 0.2; transform-origin: 53.3912px 255.545px;" class="animable" id="elo1qmslneyh"></path></g><path d="M25.8,222.78c7.26-29.67,11-38.77,19.81-38.66,2.57,3.08-.14,12.65-1.84,17.3,0,0-7.8,19.05-9.25,25.86-1.27,6-2.71,13.49-2.62,18.63a3.72,3.72,0,0,0,1,2.44c1.65,1.79,1.66,3.24,2.73,5.22.84,1.56,1.76,2.14,1.5,2.49a2,2,0,0,1-2.72.2,9.92,9.92,0,0,1-2.06-2A23,23,0,0,0,34,261.1l1.85,1.06s-.57,1.92-5,.64c-5-1.44-6.84-2.07-7.37-10.6a66.49,66.49,0,0,1-.09-9.44C24.09,234.66,24.63,227.55,25.8,222.78Z" style="fill: rgb(177, 102, 104); transform-origin: 34.9658px 223.68px;" id="elxhrvn29fz" class="animable"></path><path d="M45.83,181.6s-8.89,2.06-11,5.32c-2.46,3.77-3.4,8.63-7.54,23.35a127.92,127.92,0,0,0-4.71,33.91s5.18,2.42,10-.35c0,0,2.12-12.8,4-19.61s7.9-21.57,7.9-21.57S49.19,191.84,45.83,181.6Z" style="fill: rgb(69, 90, 100); transform-origin: 34.8095px 213.379px;" id="el0q10iyt3wb1j" class="animable"></path><path d="M54.8,265c.41.25.59-.51.68-1.64l0-2.07s1.58,1.42,2-3.38c.43-5.28-1.93-6.25-1.93-6.25s0-.88,0-2.61-.37-2.16-.77-2.46l-.6-.3v18.34S54.4,264.73,54.8,265Z" style="fill: rgb(55, 71, 79); transform-origin: 55.8562px 255.669px;" id="el8bzh9d3ejxf" class="animable"></path><path d="M52.87,262.37c0-1.57-.15-2.51-1.16-3.12s-1.65-.95-1.65-.95l-.3-9.73S51.43,249.69,52,250s.9-1.65.87-2.24l1.36.63.16,15Z" style="fill: rgb(55, 71, 79); transform-origin: 52.075px 255.575px;" id="elu26qg46rwqo" class="animable"></path><path d="M49.58,261.43l1.19.71c.66.4.95-1.62.65-4.51l.28-6.42c-.3-2.89-.34-5.53-1-5.93l-1.19-.71Z" style="fill: rgb(55, 71, 79); transform-origin: 50.605px 253.38px;" id="eltl8h4rouql" class="animable"></path></g></g><g id="freepik--screen-1--inject-22" class="animable" style="transform-origin: 202.535px 202.519px;"><g id="freepik--screen-2--inject-22" class="animable" style="transform-origin: 202.535px 202.519px;"><g id="freepik--screen-2--inject-22" class="animable" style="transform-origin: 217.61px 202.519px;"><g id="el1vzisbcacdn"><path d="M315.5,56.19a2.79,2.79,0,0,0-1.22-2.62h0l-3.15-1.8h0a2.76,2.76,0,0,0-2.88.25L123.72,158.54a8.88,8.88,0,0,0-4,7V348.86a2.81,2.81,0,0,0,1.2,2.61h0l3.22,1.84h0A2.84,2.84,0,0,0,127,353L311.49,246.51a8.88,8.88,0,0,0,4-7Z" style="fill: #AEDCFF; opacity: 0.4; transform-origin: 217.61px 202.519px;" class="animable" id="elkt8fdyfr4yp"></path></g><g id="el1hf922s82w5"><path d="M315.5,56.19V239.55a8.87,8.87,0,0,1-4,7L127,353c-2,1.15-3.61.45-3.94-1.52a3.65,3.65,0,0,0,.7-.33L308.25,244.66a8.88,8.88,0,0,0,4-7V54.34a4,4,0,0,0-.07-.8C314.07,52.84,315.5,53.91,315.5,56.19Z" style="fill: #AEDCFF; opacity: 0.4; transform-origin: 219.28px 203.441px;" class="animable" id="elkc6vlgdva1"></path></g><path d="M311.48,53.87,267.87,79.52,224.17,105,180.4,130.4l-21.9,12.67-21.93,12.62-5.48,3.15-2.74,1.58c-.43.26-1,.53-1.32.78a6.67,6.67,0,0,0-1.08.92,8.28,8.28,0,0,0-2.3,5.19v6.31l0,25.3-.14,50.6c-.08,33.73-.31,67.46-.52,101.19-.21-33.73-.44-67.46-.52-101.19l-.15-50.6,0-25.3v-6.33a9.64,9.64,0,0,1,2.67-6.15,8.53,8.53,0,0,1,1.32-1.13c.52-.34.93-.55,1.4-.83l2.73-1.58,5.47-3.18,21.89-12.68,21.93-12.62,43.86-25.22,43.94-25.09Z" style="fill: rgb(255, 255, 255); transform-origin: 216.9px 202.29px;" id="elyjoopx6sexd" class="animable"></path></g><g id="freepik--Chart--inject-22" class="animable" style="transform-origin: 176.935px 272.045px;"><g id="elxenrz6ygk9e"><path d="M141.51,264.38l70.84-40.9c1.42-.81,2.56-.15,2.56,1.48v50.32a5.64,5.64,0,0,1-2.56,4.43l-70.83,40.9c-1.42.81-2.56.15-2.56-1.48V268.81A5.66,5.66,0,0,1,141.51,264.38Z" style="opacity: 0.15; transform-origin: 176.935px 272.045px;" class="animable" id="elol4ojzor0h"></path></g><path d="M143,274.36a.27.27,0,0,1-.22-.13.25.25,0,0,1,.1-.35l67.67-39.07a.26.26,0,0,1,.35.09.25.25,0,0,1-.1.35l-67.67,39.07A.2.2,0,0,1,143,274.36Z" style="fill: rgb(250, 250, 250); transform-origin: 176.84px 254.568px;" id="elea192sd1fuk" class="animable"></path><path d="M143,283.42a.27.27,0,0,1-.22-.13.25.25,0,0,1,.1-.35l67.67-39.07a.26.26,0,0,1,.35.09.25.25,0,0,1-.1.35l-67.67,39.07A.28.28,0,0,1,143,283.42Z" style="fill: rgb(250, 250, 250); transform-origin: 176.84px 263.628px;" id="elhpnmo7nhmrm" class="animable"></path><path d="M143,292.48a.27.27,0,0,1-.22-.13.25.25,0,0,1,.1-.35l67.67-39.07a.26.26,0,0,1,.35.09.25.25,0,0,1-.1.35l-67.67,39.07A.2.2,0,0,1,143,292.48Z" style="fill: rgb(250, 250, 250); transform-origin: 176.84px 272.688px;" id="eloe38vcjwt4" class="animable"></path><path d="M143,301.54a.27.27,0,0,1-.22-.13.25.25,0,0,1,.1-.35L210.55,262a.26.26,0,0,1,.35.09.25.25,0,0,1-.1.35L143.13,301.5A.28.28,0,0,1,143,301.54Z" style="fill: rgb(250, 250, 250); transform-origin: 176.84px 281.753px;" id="elwhr63utbpsl" class="animable"></path><path d="M143,310.61a.27.27,0,0,1-.23-.14.28.28,0,0,1,.1-.37L210.54,271a.27.27,0,1,1,.27.47l-67.67,39.07A.23.23,0,0,1,143,310.61Z" style="fill: rgb(250, 250, 250); transform-origin: 176.842px 290.787px;" id="el5yzlbvu5r8w" class="animable"></path><g id="el9amr94eva4q"><path d="M210.67,256.84l-3.94-3.8c-1.44-1.4-3.65-.69-5.5,1.76l-.12.16c-2,2.61-4.32,3.22-5.74,1.49l-1.68-2c-1.72-2.09-4.74-.71-6.75,3.09l-1.45,2.73c-1.46,2.76-3.52,4.34-5.23,4h0c-2-.36-4.42,1.83-5.84,5.31l-2.26,5.55c-1.27,3.12-3.38,5.25-5.28,5.34l-2,.09a5.14,5.14,0,0,0-3.47,2.19l-2.15,2.68c-2.11,2.61-4.56,2.94-5.86.78l-.09-.16c-1.9-3.17-6-.84-7.89,4.5l-2.4,6.66v13.07l67.67-39.07Z" style="opacity: 0.3; transform-origin: 176.855px 281.305px;" class="animable" id="elowh9pzkhucp"></path></g><path d="M143,297.44h-.08a.26.26,0,0,1-.16-.33l2.4-6.66c1.23-3.44,3.48-5.88,5.58-6.09a2.84,2.84,0,0,1,2.77,1.54l.09.16a2.4,2.4,0,0,0,1.9,1.3c1.13.07,2.4-.69,3.54-2.1l2.15-2.68a5.37,5.37,0,0,1,3.66-2.29l2-.09c1.79-.08,3.82-2.16,5-5.18l2.26-5.55c1.47-3.61,4-5.86,6.12-5.46,1.6.3,3.56-1.23,5-3.89l1.44-2.73c1.3-2.45,3.07-4,4.74-4.18a2.69,2.69,0,0,1,2.44,1.05l1.68,2a2.22,2.22,0,0,0,1.75.88h.05c1.14,0,2.42-.89,3.54-2.36l.12-.17a5.67,5.67,0,0,1,3.77-2.56,2.68,2.68,0,0,1,2.11.78l3.94,3.8a.25.25,0,1,1-.35.37l-3.95-3.8a2.12,2.12,0,0,0-1.71-.63,5.16,5.16,0,0,0-3.4,2.35l-.12.16c-1.23,1.63-2.63,2.54-3.94,2.57a2.76,2.76,0,0,1-2.21-1.06l-1.68-2a2.17,2.17,0,0,0-2-.87c-1.5.15-3.11,1.61-4.33,3.91l-1.45,2.73c-1.52,2.86-3.67,4.5-5.51,4.16s-4.2,1.82-5.55,5.14l-2.26,5.55c-1.33,3.25-3.49,5.41-5.5,5.5l-2,.09a4.91,4.91,0,0,0-3.28,2.11l-2.15,2.67c-1.27,1.57-2.69,2.39-4,2.29a2.9,2.9,0,0,1-2.3-1.54l-.09-.16a2.34,2.34,0,0,0-2.28-1.3c-1.91.19-4,2.5-5.15,5.76l-2.39,6.65A.26.26,0,0,1,143,297.44Z" style="fill: rgb(69, 90, 100); transform-origin: 176.818px 274.741px;" id="elkt1syp4zb8" class="animable"></path><path d="M204.31,275.2a.26.26,0,0,1-.25-.26V273.4a.26.26,0,0,1,.25-.26.26.26,0,0,1,.26.26v1.54A.26.26,0,0,1,204.31,275.2Zm0-3.08a.26.26,0,0,1-.25-.26v-1.54a.26.26,0,0,1,.25-.26.26.26,0,0,1,.26.26v1.54A.26.26,0,0,1,204.31,272.12Zm0-3.08a.26.26,0,0,1-.25-.26v-1.54a.26.26,0,0,1,.25-.26.26.26,0,0,1,.26.26v1.54A.26.26,0,0,1,204.31,269Zm0-3.08a.26.26,0,0,1-.25-.26v-1.54a.26.26,0,0,1,.25-.26.26.26,0,0,1,.26.26v1.54A.26.26,0,0,1,204.31,266Zm0-3.08a.26.26,0,0,1-.25-.26v-1.54a.26.26,0,0,1,.25-.26.26.26,0,0,1,.26.26v1.54A.26.26,0,0,1,204.31,262.88Zm0-3.08a.26.26,0,0,1-.25-.26V258a.26.26,0,0,1,.25-.26.26.26,0,0,1,.26.26v1.54A.26.26,0,0,1,204.31,259.8Zm0-3.08a.26.26,0,0,1-.25-.26v-1.54a.26.26,0,0,1,.25-.26.26.26,0,0,1,.26.26v1.54A.26.26,0,0,1,204.31,256.72Zm0-3.08a.26.26,0,0,1-.25-.26v-.95a.26.26,0,0,1,.25-.26.26.26,0,0,1,.26.26v.95A.26.26,0,0,1,204.31,253.64Z" style="fill: #AEDCFF; transform-origin: 204.317px 263.685px;" id="el74ay10pujz" class="animable"></path><path d="M176.84,291.06a.26.26,0,0,1-.26-.26v-1.54a.26.26,0,0,1,.52,0v1.54A.26.26,0,0,1,176.84,291.06Zm0-3.08a.26.26,0,0,1-.26-.26v-1.54a.26.26,0,0,1,.52,0v1.54A.26.26,0,0,1,176.84,288Zm0-3.08a.26.26,0,0,1-.26-.26V283.1a.26.26,0,0,1,.52,0v1.54A.26.26,0,0,1,176.84,284.9Zm0-3.08a.26.26,0,0,1-.26-.26V280a.26.26,0,0,1,.52,0v1.54A.26.26,0,0,1,176.84,281.82Zm0-3.08a.26.26,0,0,1-.26-.26v-1.54a.26.26,0,0,1,.52,0v1.54A.26.26,0,0,1,176.84,278.74Zm0-3.08a.26.26,0,0,1-.26-.26v-1.54a.26.26,0,0,1,.52,0v1.54A.26.26,0,0,1,176.84,275.66Zm0-3.08a.26.26,0,0,1-.26-.26v-1.54a.26.26,0,0,1,.52,0v1.54A.26.26,0,0,1,176.84,272.58Zm0-3.08a.26.26,0,0,1-.26-.26V267.7a.26.26,0,0,1,.52,0v1.54A.26.26,0,0,1,176.84,269.5Zm0-3.08a.26.26,0,0,1-.26-.26v-.42a.26.26,0,0,1,.52,0v.42A.26.26,0,0,1,176.84,266.42Z" style="fill: #AEDCFF; transform-origin: 176.84px 278.27px;" id="elrwlxqvmptbs" class="animable"></path><path d="M163.1,299a.25.25,0,0,1-.25-.26v-1.54a.25.25,0,0,1,.25-.25.26.26,0,0,1,.26.25v1.54A.26.26,0,0,1,163.1,299Zm0-3.08a.25.25,0,0,1-.25-.26v-1.54a.25.25,0,0,1,.25-.25.26.26,0,0,1,.26.25v1.54A.26.26,0,0,1,163.1,295.91Zm0-3.08a.25.25,0,0,1-.25-.26V291a.25.25,0,0,1,.25-.25.26.26,0,0,1,.26.25v1.54A.26.26,0,0,1,163.1,292.83Zm0-3.08a.25.25,0,0,1-.25-.26V288a.25.25,0,0,1,.25-.25.26.26,0,0,1,.26.25v1.54A.26.26,0,0,1,163.1,289.75Zm0-3.08a.25.25,0,0,1-.25-.26v-1.54a.25.25,0,0,1,.25-.25.26.26,0,0,1,.26.25v1.54A.26.26,0,0,1,163.1,286.67Zm0-3.08a.25.25,0,0,1-.25-.26v-1.54a.25.25,0,0,1,.25-.25.26.26,0,0,1,.26.25v1.54A.26.26,0,0,1,163.1,283.59Z" style="fill: #AEDCFF; transform-origin: 163.106px 290.275px;" id="elbksqz5gdrdl" class="animable"></path><path d="M149.37,306.92a.25.25,0,0,1-.26-.25v-1.54a.26.26,0,1,1,.51,0v1.54A.25.25,0,0,1,149.37,306.92Zm0-3.08a.25.25,0,0,1-.26-.25v-1.54a.26.26,0,1,1,.51,0v1.54A.25.25,0,0,1,149.37,303.84Zm0-3.08a.25.25,0,0,1-.26-.25V299a.26.26,0,1,1,.51,0v1.54A.25.25,0,0,1,149.37,300.76Zm0-3.08a.25.25,0,0,1-.26-.25v-1.54a.26.26,0,1,1,.51,0v1.54A.25.25,0,0,1,149.37,297.68Zm0-3.08a.25.25,0,0,1-.26-.25v-1.54a.26.26,0,1,1,.51,0v1.54A.25.25,0,0,1,149.37,294.6Zm0-3.08a.25.25,0,0,1-.26-.25v-1.54a.26.26,0,1,1,.51,0v1.54A.25.25,0,0,1,149.37,291.52Zm0-3.08a.25.25,0,0,1-.26-.25v-1.54a.26.26,0,1,1,.51,0v1.54A.25.25,0,0,1,149.37,288.44Zm0-3.09a.24.24,0,0,1-.26-.25v0a.26.26,0,1,1,.51,0A.27.27,0,0,1,149.37,285.35Z" style="fill: #AEDCFF; transform-origin: 149.365px 295.855px;" id="elejchkx2o8fg" class="animable"></path><path d="M190.58,283.13a.26.26,0,0,1-.26-.26v-1.54a.26.26,0,0,1,.51,0v1.54A.26.26,0,0,1,190.58,283.13Zm0-3.08a.26.26,0,0,1-.26-.26v-1.54a.26.26,0,0,1,.51,0v1.54A.26.26,0,0,1,190.58,280.05Zm0-3.08a.26.26,0,0,1-.26-.26v-1.54a.26.26,0,0,1,.51,0v1.54A.26.26,0,0,1,190.58,277Zm0-3.08a.26.26,0,0,1-.26-.26v-1.54a.26.26,0,0,1,.51,0v1.54A.26.26,0,0,1,190.58,273.89Zm0-3.08a.26.26,0,0,1-.26-.26V269a.26.26,0,0,1,.51,0v1.54A.26.26,0,0,1,190.58,270.81Zm0-3.08a.26.26,0,0,1-.26-.26v-1.54a.26.26,0,0,1,.51,0v1.54A.26.26,0,0,1,190.58,267.73Zm0-3.08a.26.26,0,0,1-.26-.26v-1.54a.26.26,0,0,1,.51,0v1.54A.26.26,0,0,1,190.58,264.65Zm0-3.08a.26.26,0,0,1-.26-.26v-1.54a.26.26,0,0,1,.51,0v1.54A.26.26,0,0,1,190.58,261.57Zm0-3.08a.26.26,0,0,1-.26-.26v-1.54a.26.26,0,0,1,.51,0v1.54A.26.26,0,0,1,190.58,258.49Zm0-3.08a.26.26,0,0,1-.26-.26v-1.51a.26.26,0,1,1,.51,0v1.51A.26.26,0,0,1,190.58,255.41Z" style="fill: #AEDCFF; transform-origin: 190.575px 268.23px;" id="elri1bcuy44lj" class="animable"></path><path d="M204.93,252.07c0-.53-.27-.8-.62-.6a1.66,1.66,0,0,0-.62,1.32c0,.53.28.8.62.6A1.63,1.63,0,0,0,204.93,252.07Z" style="fill: rgb(224, 224, 224); transform-origin: 204.31px 252.43px;" id="el4mgt16401fv" class="animable"></path><path d="M191.2,253.28c0-.53-.28-.8-.62-.6A1.63,1.63,0,0,0,190,254c0,.53.28.79.63.6A1.66,1.66,0,0,0,191.2,253.28Z" style="fill: rgb(224, 224, 224); transform-origin: 190.6px 253.638px;" id="elo8h7dybfr3" class="animable"></path><path d="M177.46,265.38c0-.53-.28-.8-.62-.6a1.66,1.66,0,0,0-.62,1.32c0,.52.28.79.62.59A1.62,1.62,0,0,0,177.46,265.38Z" style="fill: rgb(224, 224, 224); transform-origin: 176.84px 265.735px;" id="elyheuaw11w0f" class="animable"></path><path d="M163.72,280.8c0-.53-.27-.8-.62-.6a1.64,1.64,0,0,0-.62,1.31c0,.53.28.8.62.6A1.62,1.62,0,0,0,163.72,280.8Z" style="fill: rgb(224, 224, 224); transform-origin: 163.1px 281.155px;" id="elim2etu479xs" class="animable"></path><path d="M150,284.72c0-.53-.28-.8-.62-.6a1.63,1.63,0,0,0-.63,1.32c0,.53.28.8.63.6A1.66,1.66,0,0,0,150,284.72Z" style="fill: rgb(224, 224, 224); transform-origin: 149.375px 285.08px;" id="eleyuva8na83o" class="animable"></path></g><g id="freepik--check-list--inject-22" class="animable" style="transform-origin: 269.07px 117.52px;"><path d="M287.84,106.92a.54.54,0,0,1-.27-.07.52.52,0,0,1-.26-.45V97.16a.5.5,0,0,1,.27-.45l8-4.62a.51.51,0,0,1,.53,0,.53.53,0,0,1,.26.46v9.23a.54.54,0,0,1-.26.46l-8,4.61A.48.48,0,0,1,287.84,106.92Zm.53-9.45v8l6.94-4v-8Z" style="fill: #AEDCFF; transform-origin: 291.84px 99.4681px;" id="elug48gvu3lob" class="animable"></path><path id="freepik--Check--inject-22" d="M286.92,95.77c.38-.37.71-.33.92-.08l3.67,4.49L293,97.13c.24-.53.53-.66.88-.52s.34.54.21.83l-1.89,4c-.18.39-.26.52-.52.57s-.61-.25-.74-.4l-4-4.93A.62.62,0,0,1,286.92,95.77Z" style="fill: rgb(69, 90, 100); transform-origin: 290.452px 98.7564px;" class="animable"></path><path d="M281.05,104.31l-38,21.94a2.74,2.74,0,0,0-1.28,2.13c0,.77.57,1.06,1.28.65l38-21.94a2.74,2.74,0,0,0,1.27-2.13C282.32,104.2,281.75,103.9,281.05,104.31Z" style="fill: rgb(69, 90, 100); transform-origin: 262.045px 116.671px;" id="elq7s0cqn2dxk" class="animable"></path><path d="M287.84,120.77a.48.48,0,0,1-.26-.07.52.52,0,0,1-.27-.46V111a.53.53,0,0,1,.27-.46l8-4.61a.51.51,0,0,1,.53,0,.52.52,0,0,1,.26.45v9.24a.51.51,0,0,1-.26.45l-8,4.62A.48.48,0,0,1,287.84,120.77Zm.53-9.45v8l6.94-4v-8Z" style="fill: #AEDCFF; transform-origin: 291.84px 113.313px;" id="eltno16e3ujzn" class="animable"></path><path id="freepik--check--inject-22" d="M286.92,109.67c.38-.36.71-.33.92-.08l3.67,4.49,1.46-3c.24-.53.53-.67.88-.52s.34.53.21.83l-1.89,4c-.18.39-.26.52-.52.58s-.61-.26-.74-.41l-4-4.93A.62.62,0,0,1,286.92,109.67Z" style="fill: rgb(69, 90, 100); transform-origin: 290.415px 112.689px;" class="animable"></path><path d="M281.05,118.12l-38,21.93a2.76,2.76,0,0,0-1.28,2.14c0,.76.57,1.06,1.28.65l38-21.94a2.76,2.76,0,0,0,1.27-2.13C282.32,118,281.75,117.71,281.05,118.12Z" style="fill: rgb(69, 90, 100); transform-origin: 262.045px 130.479px;" id="el86u8fuqotls" class="animable"></path></g><g id="freepik--chart--inject-22" class="animable" style="transform-origin: 190.22px 168.078px;"><g id="elu0np2rtglad"><g style="opacity: 0.15; transform-origin: 190.22px 168.078px;" class="animable" id="elkx6inkk3yo"><path d="M216.17,125.19l-51.9,30a8.11,8.11,0,0,0-3.67,6.37v47.29c0,2.34,1.64,3.29,3.67,2.12l51.9-30a8.13,8.13,0,0,0,3.67-6.37V127.31C219.84,125,218.2,124,216.17,125.19Z" id="el9y294fg6h0o" class="animable" style="transform-origin: 190.22px 168.078px;"></path></g></g><path d="M196.84,161.66s.09,0,.13,0a.18.18,0,0,1,.06.15v.65a.42.42,0,0,1-.06.21.28.28,0,0,1-.13.15l-2.19,1.26,1.62,4a.22.22,0,0,1,0,.1.42.42,0,0,1-.06.21.39.39,0,0,1-.13.15l-.58.33c-.06,0-.1,0-.13,0a.41.41,0,0,1-.07-.11l-1.62-4c0-.09-.06-.16-.08-.21a.52.52,0,0,1,0-.18v-.61a.39.39,0,0,1,.06-.2.28.28,0,0,1,.13-.15Z" style="fill: rgb(69, 90, 100); transform-origin: 195.311px 165.265px;" id="eldoejy89l0g" class="animable"></path><path d="M189.4,167.37a3.75,3.75,0,0,1,.32-1,3.38,3.38,0,0,1,.57-.86,3.27,3.27,0,0,1,.86-.68,1.81,1.81,0,0,1,.86-.3.8.8,0,0,1,.57.21,1.44,1.44,0,0,1,.32.63,6,6,0,0,1,.12.94c0,.23,0,.49,0,.79s0,.57,0,.81a9.21,9.21,0,0,1-.12,1.07,4.68,4.68,0,0,1-.32,1,3.78,3.78,0,0,1-.57.86,3.52,3.52,0,0,1-.86.69,2.06,2.06,0,0,1-.86.3.69.69,0,0,1-.57-.2,1.15,1.15,0,0,1-.32-.61,4.2,4.2,0,0,1-.12-.93c0-.11,0-.24,0-.38v-.87c0-.15,0-.28,0-.4A6.26,6.26,0,0,1,189.4,167.37Zm2.69.27c0-.28,0-.54,0-.77a1.57,1.57,0,0,0-.24-.9c-.14-.16-.37-.15-.69,0a1.56,1.56,0,0,0-.7.76,3.91,3.91,0,0,0-.24,1.18c0,.24,0,.5,0,.78s0,.54,0,.78a1.7,1.7,0,0,0,.24.89c.14.17.37.15.7,0a1.65,1.65,0,0,0,.69-.77,3.28,3.28,0,0,0,.24-1.17C192.09,168.19,192.09,167.93,192.09,167.64Z" style="fill: rgb(69, 90, 100); transform-origin: 191.15px 168.182px;" id="elswq51ihuem" class="animable"></path><path d="M188,166.82a.47.47,0,0,1,.32.08.56.56,0,0,1,.2.25,1.51,1.51,0,0,1,.08.38c0,.16,0,.33,0,.51s0,.36,0,.52a2.89,2.89,0,0,1-.08.47,2.22,2.22,0,0,1-.2.48,2,2,0,0,1-.76.8,1.07,1.07,0,0,1-.45.16.45.45,0,0,1-.31-.08.54.54,0,0,1-.2-.26,1.34,1.34,0,0,1-.08-.37c0-.16,0-.33,0-.51s0-.35,0-.52a2.89,2.89,0,0,1,.08-.47,2.22,2.22,0,0,1,.2-.48,2.26,2.26,0,0,1,.31-.45,2,2,0,0,1,.45-.36A.92.92,0,0,1,188,166.82Zm.21,6,0,0s0,0,0,0a.34.34,0,0,1,0,.17.34.34,0,0,1-.12.12l-.42.24a.21.21,0,0,1-.15,0,.3.3,0,0,1-.1-.07L184,169.38s0,0,0,0v-.05a.31.31,0,0,1,.16-.28l.42-.24a.24.24,0,0,1,.15,0,.3.3,0,0,1,.1.07Zm-.93-3.31c0,.06.15.05.28,0a.65.65,0,0,0,.28-.29,1.12,1.12,0,0,0,.09-.36s0-.11,0-.19v-.5c0-.08,0-.13,0-.17a.44.44,0,0,0-.09-.26c-.05-.06-.15-.05-.28,0a.65.65,0,0,0-.28.29,1.12,1.12,0,0,0-.09.37s0,.1,0,.18v.5c0,.08,0,.14,0,.17A.44.44,0,0,0,187.27,169.54ZM185,171.81a.48.48,0,0,1,.32.08.51.51,0,0,1,.19.26,1,1,0,0,1,.08.38c0,.15,0,.32,0,.5s0,.36,0,.53a1.71,1.71,0,0,1-.08.47,1.92,1.92,0,0,1-.19.48,2.24,2.24,0,0,1-.32.44,1.51,1.51,0,0,1-.44.35,1.1,1.1,0,0,1-.45.17.51.51,0,0,1-.31-.08.59.59,0,0,1-.2-.26,1.42,1.42,0,0,1-.08-.38c0-.15,0-.32,0-.5s0-.36,0-.52a3,3,0,0,1,.08-.48,2.45,2.45,0,0,1,.2-.48,2.26,2.26,0,0,1,.31-.45,2,2,0,0,1,.45-.36A1,1,0,0,1,185,171.81Zm-.72,2.73c.05.05.14.05.28,0a.7.7,0,0,0,.28-.29,1.18,1.18,0,0,0,.09-.37,1.36,1.36,0,0,1,0-.18v-.5a1.31,1.31,0,0,1,0-.17.48.48,0,0,0-.09-.27c0-.06-.15,0-.28,0a.65.65,0,0,0-.28.29,1.18,1.18,0,0,0-.09.37.87.87,0,0,0,0,.18v.5a.72.72,0,0,0,0,.17A.48.48,0,0,0,184.26,174.54Z" style="fill: rgb(69, 90, 100); transform-origin: 186.06px 171.144px;" id="el9eefu42ijgv" class="animable"></path><path d="M196.7,152.42l2.3-5.54c2.52,1,4.45,3.35,5.43,6.82l-3.71,3.75C200,154.89,198.57,153.15,196.7,152.42Z" style="fill: rgb(69, 90, 100); transform-origin: 200.565px 152.165px;" id="els7kwcx9atzr" class="animable"></path><path d="M190.22,153.34v-5.2c3.28-1.9,6.31-2.23,8.78-1.26l-2.3,5.54C194.88,151.7,192.65,151.94,190.22,153.34Z" style="fill: rgb(69, 90, 100); transform-origin: 194.61px 149.845px;" id="eljcebchy1d8j" class="animable"></path><path d="M201.26,161.68a15.51,15.51,0,0,0-.54-4.23l3.71-3.75a21.09,21.09,0,0,1,.73,5.73,31.81,31.81,0,0,1-.73,6.58l-3.71.53A23.27,23.27,0,0,0,201.26,161.68Z" style="fill: rgb(69, 90, 100); transform-origin: 202.941px 160.12px;" id="el1ljwdudppcy" class="animable"></path><g id="el05uvgr31or3h"><g style="opacity: 0.3; transform-origin: 189.839px 168.954px;" class="animable" id="el3iay2ipt8zr"><path d="M176,170.11a40,40,0,0,1,5.43-13.1,27.16,27.16,0,0,1,8.78-8.87v5.2a20,20,0,0,0-6.48,6.56,29.52,29.52,0,0,0-4,9.67,23.27,23.27,0,0,0-.54,4.86,15.46,15.46,0,0,0,.54,4.23,7.16,7.16,0,0,0,4,5c1.82.71,4,.48,6.48-.92a20.05,20.05,0,0,0,6.48-6.57,29.34,29.34,0,0,0,4-9.67l3.71-.53A39.82,39.82,0,0,1,199,179.1a27.29,27.29,0,0,1-8.78,8.88c-3.28,1.89-6.32,2.23-8.78,1.26s-4.45-3.35-5.43-6.82a21.22,21.22,0,0,1-.73-5.74A31.71,31.71,0,0,1,176,170.11Z" id="el5p5h3qosen" class="animable" style="transform-origin: 189.839px 168.954px;"></path></g></g></g><g id="freepik--chart--inject-22" class="animable" style="transform-origin: 119.437px 209.083px;"><g id="elt18nu7dedxr"><path d="M145.64,166l-25.94,15v8c3.28-1.89,6.31-2.23,8.78-1.26s4.44,3.35,5.42,6.82a20.83,20.83,0,0,1,.73,5.74,31,31,0,0,1-.73,6.57,39.94,39.94,0,0,1-5.42,13.1,27.35,27.35,0,0,1-8.78,8.87v8l25.94-15a8.12,8.12,0,0,0,3.68-6.37V168.07C149.32,165.73,147.67,164.78,145.64,166Z" style="opacity: 0.15; transform-origin: 134.51px 201.153px;" class="animable" id="elskhdtgdj3s"></path></g><g id="el0ep9guqgfl7u"><path d="M120.32,211.3a1.54,1.54,0,0,0,.69-.76,3.28,3.28,0,0,0,.24-1.17c0-.25,0-.5,0-.79s0-.54,0-.77a1.57,1.57,0,0,0-.24-.9c-.13-.16-.37-.15-.69,0a1.68,1.68,0,0,0-.62.65v3.81C119.84,211.49,120.05,211.46,120.32,211.3Z" style="opacity: 0.15; transform-origin: 120.476px 209.119px;" class="animable" id="el2p66sfe0hp4"></path></g><g id="elc88v8okpn6d"><path d="M120.32,205.79a1.81,1.81,0,0,1,.86-.3.8.8,0,0,1,.57.21,1.34,1.34,0,0,1,.32.63,4.3,4.3,0,0,1,.12.94c0,.22,0,.49,0,.79s0,.57,0,.81a6.26,6.26,0,0,1-.12,1.07,4.17,4.17,0,0,1-.32,1,3.78,3.78,0,0,1-.57.86,3.27,3.27,0,0,1-.86.68,2.23,2.23,0,0,1-.62.26v10.82a20.21,20.21,0,0,0,6.48-6.56,29.71,29.71,0,0,0,4-9.67,23.34,23.34,0,0,0,.54-4.86,15.59,15.59,0,0,0-.54-4.24,7.17,7.17,0,0,0-4-5c-1.82-.71-4.05-.48-6.48.92v12.14A4.1,4.1,0,0,1,120.32,205.79Zm2.68,2.37a2.76,2.76,0,0,1,.28-.72,3.41,3.41,0,0,1,.43-.64,4.11,4.11,0,0,1,.57-.53l-1-.84-.1-.09a.28.28,0,0,1,0-.16v-.66a.54.54,0,0,1,0-.21.41.41,0,0,1,.14-.15l3-1.76a.12.12,0,0,1,.14,0,.2.2,0,0,1,0,.14v.66a.54.54,0,0,1,0,.21.34.34,0,0,1-.14.15l-1.92,1.11,1,.8.1.09a.29.29,0,0,1,0,.17v.65a.42.42,0,0,1-.06.21.32.32,0,0,1-.13.15l-.57.34a2.19,2.19,0,0,0-.69.57,1.2,1.2,0,0,0-.26.75c0,.28.09.45.26.49a.9.9,0,0,0,.69-.16,3.82,3.82,0,0,0,.42-.3,1.59,1.59,0,0,0,.29-.29,1.1,1.1,0,0,0,.18-.28,1,1,0,0,0,.11-.27l.1-.23a.36.36,0,0,1,.11-.13l.55-.31a.14.14,0,0,1,.14,0s.06.07,0,.15a2.39,2.39,0,0,1-.15.69,3.47,3.47,0,0,1-.36.76,4.43,4.43,0,0,1-.6.74,4.64,4.64,0,0,1-.84.64,2.45,2.45,0,0,1-.75.29,1.07,1.07,0,0,1-.6-.05.88.88,0,0,1-.4-.41,1.91,1.91,0,0,1-.14-.78A3,3,0,0,1,123,208.16Z" style="opacity: 0.15; transform-origin: 125.21px 208.2px;" class="animable" id="elgehyomks8mr"></path></g><path d="M123.44,210.13a1.07,1.07,0,0,0,.6.05,2.45,2.45,0,0,0,.75-.29,4.64,4.64,0,0,0,.84-.64,4.43,4.43,0,0,0,.6-.74,3.47,3.47,0,0,0,.36-.76,2.39,2.39,0,0,0,.15-.69c0-.08,0-.13,0-.15a.14.14,0,0,0-.14,0l-.55.31a.36.36,0,0,0-.11.13l-.1.23a1,1,0,0,1-.11.27,1.1,1.1,0,0,1-.18.28,1.59,1.59,0,0,1-.29.29,3.82,3.82,0,0,1-.42.3.9.9,0,0,1-.69.16c-.17,0-.26-.21-.26-.49a1.2,1.2,0,0,1,.26-.75,2.19,2.19,0,0,1,.69-.57l.57-.34a.32.32,0,0,0,.13-.15.42.42,0,0,0,.06-.21v-.65a.29.29,0,0,0,0-.17l-.1-.09-1-.8,1.92-1.11a.34.34,0,0,0,.14-.15.54.54,0,0,0,0-.21v-.66a.2.2,0,0,0,0-.14.12.12,0,0,0-.14,0l-3,1.76a.41.41,0,0,0-.14.15.54.54,0,0,0,0,.21v.66a.28.28,0,0,0,0,.16l.1.09,1,.84a4.11,4.11,0,0,0-.57.53,3.41,3.41,0,0,0-.43.64,2.76,2.76,0,0,0-.28.72,3,3,0,0,0-.1.78,1.91,1.91,0,0,0,.14.78A.88.88,0,0,0,123.44,210.13Z" style="fill: rgb(69, 90, 100); transform-origin: 124.87px 206.285px;" id="elgcjzbze0m4d" class="animable"></path><path d="M121.18,211.78a3.78,3.78,0,0,0,.57-.86,4.17,4.17,0,0,0,.32-1,6.26,6.26,0,0,0,.12-1.07c0-.24,0-.51,0-.81s0-.57,0-.79a4.3,4.3,0,0,0-.12-.94,1.34,1.34,0,0,0-.32-.63.8.8,0,0,0-.57-.21,1.81,1.81,0,0,0-.86.3,4.1,4.1,0,0,0-.62.45v1.35a1.68,1.68,0,0,1,.62-.65c.32-.18.56-.19.69,0a1.57,1.57,0,0,1,.24.9c0,.23,0,.49,0,.77s0,.54,0,.79a3.28,3.28,0,0,1-.24,1.17,1.54,1.54,0,0,1-.69.76c-.27.16-.48.19-.62.1v1.32a2.23,2.23,0,0,0,.62-.26A3.27,3.27,0,0,0,121.18,211.78Z" style="fill: rgb(69, 90, 100); transform-origin: 120.945px 209.1px;" id="elefjootnm8ge" class="animable"></path><path d="M130.19,198.21l3.71-3.75c-1-3.47-2.9-5.83-5.42-6.82l-2.3,5.54A7.17,7.17,0,0,1,130.19,198.21Z" style="fill: rgb(69, 90, 100); transform-origin: 130.04px 192.925px;" id="elq8pxnmjoerk" class="animable"></path><path d="M126.18,193.18l2.3-5.54c-2.47-1-5.5-.63-8.78,1.26v5.2C122.13,192.7,124.36,192.47,126.18,193.18Z" style="fill: rgb(69, 90, 100); transform-origin: 124.09px 190.6px;" id="elhs0v9nnba6b" class="animable"></path><path d="M130.73,202.45a23.34,23.34,0,0,1-.54,4.86l3.71-.54a31,31,0,0,0,.73-6.57,20.83,20.83,0,0,0-.73-5.74l-3.71,3.75A15.59,15.59,0,0,1,130.73,202.45Z" style="fill: rgb(69, 90, 100); transform-origin: 132.411px 200.885px;" id="elhbguaggy5v7" class="animable"></path><path d="M119.7,223.54v5.2a27.35,27.35,0,0,0,8.78-8.87l-2.3-2.89A20.21,20.21,0,0,1,119.7,223.54Z" style="fill: rgb(69, 90, 100); transform-origin: 124.09px 222.86px;" id="els2kyy6ebebb" class="animable"></path><path d="M126.18,217l2.3,2.89a39.94,39.94,0,0,0,5.42-13.1l-3.71.54A29.71,29.71,0,0,1,126.18,217Z" style="fill: rgb(69, 90, 100); transform-origin: 130.04px 213.34px;" id="ell2ijz4qp41" class="animable"></path><path d="M119.69,228.74c-3.28,1.9-6.31,2.23-8.78,1.26s-4.44-3.35-5.42-6.82a20.76,20.76,0,0,1-.73-5.73,31.14,31.14,0,0,1,.73-6.58,39.8,39.8,0,0,1,5.42-13.09,27.29,27.29,0,0,1,8.78-8.88h0v-8l-25.95,15a8.14,8.14,0,0,0-3.68,6.37v47.29c0,2.35,1.65,3.3,3.68,2.12l26-15v-8Z" style="fill: rgb(250, 250, 250); transform-origin: 104.9px 216.544px;" id="elnh1nthjvnk" class="animable"></path><path d="M92.1,252.7a2.37,2.37,0,0,1-1.2-.32,3,3,0,0,1-1.33-2.81V202.28a8.57,8.57,0,0,1,3.93-6.8l26.2-15.15v1.17L94,196.34a7.6,7.6,0,0,0-3.43,5.94v47.29a1.76,1.76,0,0,0,2.93,1.69l26.19-15.15v1.18L94,252.13A3.83,3.83,0,0,1,92.1,252.7Z" style="fill: rgb(224, 224, 224); transform-origin: 104.627px 216.515px;" id="elcgqtfdqzmud" class="animable"></path><path d="M119.39,208.88c0,.25,0,.51,0,.79s0,.54,0,.77a1.57,1.57,0,0,0,.24.9s.05,0,.07.06v-3.81l-.07.12A3.32,3.32,0,0,0,119.39,208.88Z" style="fill: rgb(250, 250, 250); transform-origin: 119.544px 209.495px;" id="elwqe13pyfdum" class="animable"></path><path d="M114.08,213.93a.47.47,0,0,0-.09-.26c0-.06-.15,0-.28,0a.65.65,0,0,0-.28.29,1.18,1.18,0,0,0-.09.37s0,.1,0,.18v.5c0,.08,0,.14,0,.17a.48.48,0,0,0,.09.27c0,.05.14.05.28,0a.67.67,0,0,0,.28-.3,1.06,1.06,0,0,0,.09-.36s0-.1,0-.19v-.5C114.09,214,114.08,214,114.08,213.93Z" style="fill: rgb(250, 250, 250); transform-origin: 113.712px 214.565px;" id="ellutud3m6c9b" class="animable"></path><path d="M113.21,200.67a29.57,29.57,0,0,0-4,9.66,23.44,23.44,0,0,0-.54,4.87,15.51,15.51,0,0,0,.54,4.23c.73,2.56,2.15,4.3,4,5s4.06.48,6.48-.92h0V212.72a1.14,1.14,0,0,1-.24.05.74.74,0,0,1-.57-.2,1.22,1.22,0,0,1-.32-.61,4.2,4.2,0,0,1-.12-.93c0-.11,0-.24,0-.38v-.87c0-.15,0-.28,0-.4a6.26,6.26,0,0,1,.12-1.07,4.17,4.17,0,0,1,.32-1,3.48,3.48,0,0,1,.57-.86c.07-.08.16-.15.24-.23V194.1h0A20.15,20.15,0,0,0,113.21,200.67Zm1.54,13.82a2.72,2.72,0,0,1-.08.47,2.3,2.3,0,0,1-.2.49,2.19,2.19,0,0,1-.31.44,1.7,1.7,0,0,1-.45.35.94.94,0,0,1-.45.16.45.45,0,0,1-.31-.07.59.59,0,0,1-.2-.26,1.51,1.51,0,0,1-.08-.38c0-.15,0-.32,0-.51s0-.35,0-.52a2.89,2.89,0,0,1,.08-.47,2.45,2.45,0,0,1,.2-.48,2.26,2.26,0,0,1,.31-.45,2,2,0,0,1,.45-.36,1,1,0,0,1,.45-.15.45.45,0,0,1,.31.08.59.59,0,0,1,.2.26,1.42,1.42,0,0,1,.08.38c0,.15,0,.32,0,.5S114.76,214.33,114.75,214.49Zm2.6-.45a.34.34,0,0,1-.12.12l-.42.24a.24.24,0,0,1-.15,0l-.1-.08-3.43-4,0,0a.09.09,0,0,1,0-.05.32.32,0,0,1,0-.16.34.34,0,0,1,.12-.12l.42-.24c.07,0,.12-.05.15,0a.23.23,0,0,1,.1.07l3.44,4a.08.08,0,0,1,0,0s0,0,0,0A.37.37,0,0,1,117.35,214Zm-.63-6.13a1.07,1.07,0,0,1,.45-.16.52.52,0,0,1,.31.09.56.56,0,0,1,.2.25,1.51,1.51,0,0,1,.08.38c0,.16,0,.33,0,.51s0,.35,0,.52a2.89,2.89,0,0,1-.08.47,2.22,2.22,0,0,1-.2.48,1.94,1.94,0,0,1-.31.44,2,2,0,0,1-.45.36,1.08,1.08,0,0,1-.44.16.48.48,0,0,1-.32-.08.47.47,0,0,1-.19-.26,1.11,1.11,0,0,1-.08-.37c0-.16,0-.33,0-.51s0-.36,0-.52a2,2,0,0,1,.08-.47,1.66,1.66,0,0,1,.19-.48,2.31,2.31,0,0,1,.32-.45A1.73,1.73,0,0,1,116.72,207.91Z" style="fill: rgb(250, 250, 250); transform-origin: 114.18px 209.458px;" id="eleh9hd1f5e5b" class="animable"></path><path d="M116.45,210.48c0,.06.14.05.27,0a.6.6,0,0,0,.28-.29,1.12,1.12,0,0,0,.09-.37.87.87,0,0,0,0-.18c0-.08,0-.17,0-.25s0-.17,0-.25a.72.72,0,0,0,0-.17.42.42,0,0,0-.09-.26c0-.06-.14-.05-.28,0a.54.54,0,0,0-.27.29.93.93,0,0,0-.1.37v.85A.39.39,0,0,0,116.45,210.48Z" style="fill: rgb(250, 250, 250); transform-origin: 116.723px 209.595px;" id="el3rkkjrxodmw" class="animable"></path><path d="M119.63,211.34a1.57,1.57,0,0,1-.24-.9c0-.23,0-.48,0-.77s0-.54,0-.79a3.32,3.32,0,0,1,.24-1.17l.07-.12v-1.35c-.08.08-.17.15-.24.23a3.48,3.48,0,0,0-.57.86,4.17,4.17,0,0,0-.32,1,6.26,6.26,0,0,0-.12,1.07c0,.12,0,.25,0,.4v.87c0,.14,0,.27,0,.38a4.2,4.2,0,0,0,.12.93,1.22,1.22,0,0,0,.32.61.74.74,0,0,0,.57.2,1.14,1.14,0,0,0,.24-.05V211.4S119.65,211.37,119.63,211.34Z" style="fill: rgb(224, 224, 224); transform-origin: 119.075px 209.516px;" id="el99t2zg94qkk" class="animable"></path><path d="M115.77,209.2a2,2,0,0,0-.08.47c0,.16,0,.34,0,.52s0,.35,0,.51a1.11,1.11,0,0,0,.08.37.47.47,0,0,0,.19.26.48.48,0,0,0,.32.08,1.08,1.08,0,0,0,.44-.16,2,2,0,0,0,.45-.36,1.94,1.94,0,0,0,.31-.44,2.22,2.22,0,0,0,.2-.48,2.89,2.89,0,0,0,.08-.47c0-.17,0-.34,0-.52s0-.35,0-.51a1.51,1.51,0,0,0-.08-.38.56.56,0,0,0-.2-.25.52.52,0,0,0-.31-.09,1.07,1.07,0,0,0-.45.16,1.73,1.73,0,0,0-.44.36,2.31,2.31,0,0,0-.32.45A1.66,1.66,0,0,0,115.77,209.2Zm.58.6v-.43a.93.93,0,0,1,.1-.37.54.54,0,0,1,.27-.29c.14-.08.23-.09.28,0a.42.42,0,0,1,.09.26.72.72,0,0,1,0,.17c0,.08,0,.16,0,.25s0,.17,0,.25a.87.87,0,0,1,0,.18,1.12,1.12,0,0,1-.09.37.6.6,0,0,1-.28.29c-.13.08-.23.09-.27,0a.39.39,0,0,1-.1-.26v-.42Z" style="fill: rgb(224, 224, 224); transform-origin: 116.725px 209.581px;" id="elhmdx4pswp1b" class="animable"></path><path d="M114.67,213.09a.59.59,0,0,0-.2-.26.45.45,0,0,0-.31-.08,1,1,0,0,0-.45.15,2,2,0,0,0-.45.36,2.26,2.26,0,0,0-.31.45,2.45,2.45,0,0,0-.2.48,2.89,2.89,0,0,0-.08.47c0,.17,0,.34,0,.52s0,.36,0,.51a1.51,1.51,0,0,0,.08.38.59.59,0,0,0,.2.26.45.45,0,0,0,.31.07.94.94,0,0,0,.45-.16,1.7,1.7,0,0,0,.45-.35,2.19,2.19,0,0,0,.31-.44,2.3,2.3,0,0,0,.2-.49,2.72,2.72,0,0,0,.08-.47c0-.16,0-.34,0-.52s0-.35,0-.5A1.42,1.42,0,0,0,114.67,213.09Zm-.58,1.51c0,.09,0,.15,0,.19a1.06,1.06,0,0,1-.09.36.67.67,0,0,1-.28.3c-.14.08-.23.08-.28,0a.48.48,0,0,1-.09-.27s0-.09,0-.17v-.5c0-.08,0-.14,0-.18a1.18,1.18,0,0,1,.09-.37.65.65,0,0,1,.28-.29c.13-.07.23-.09.28,0a.47.47,0,0,1,.09.26s0,.1,0,.17v.5Z" style="fill: rgb(224, 224, 224); transform-origin: 113.71px 214.576px;" id="elcl0mo1v9o79" class="animable"></path><path d="M117.37,213.79l-3.44-4a.23.23,0,0,0-.1-.07s-.08,0-.15,0l-.42.24a.34.34,0,0,0-.12.12.32.32,0,0,0,0,.16.09.09,0,0,0,0,.05l0,0,3.43,4,.1.08a.24.24,0,0,0,.15,0l.42-.24a.34.34,0,0,0,.12-.12.37.37,0,0,0,.05-.17s0,0,0,0A.08.08,0,0,0,117.37,213.79Z" style="fill: rgb(224, 224, 224); transform-origin: 115.27px 212.051px;" id="elbtzxdpns3g4" class="animable"></path><polygon points="119.69 194.1 119.7 194.1 119.7 188.9 119.69 188.9 119.69 194.1" style="fill: #AEDCFF; transform-origin: 119.695px 191.5px;" id="elam5kv0mkxy" class="animable"></polygon><path d="M108.66,215.2a23.44,23.44,0,0,1,.54-4.87,29.57,29.57,0,0,1,4-9.66,20.15,20.15,0,0,1,6.48-6.57v-5.2a27.29,27.29,0,0,0-8.78,8.88,39.8,39.8,0,0,0-5.42,13.09,31.14,31.14,0,0,0-.73,6.58,20.76,20.76,0,0,0,.73,5.73l3.71-3.75A15.51,15.51,0,0,1,108.66,215.2Z" style="fill: #AEDCFF; transform-origin: 112.214px 206.04px;" id="elvzeu8yn26b" class="animable"></path><path d="M109.2,219.43l-3.71,3.75c1,3.47,2.9,5.83,5.42,6.82l2.3-5.54C111.35,223.73,109.93,222,109.2,219.43Z" style="fill: rgb(224, 224, 224); transform-origin: 109.35px 224.715px;" id="elqtieqe5fahd" class="animable"></path><polygon points="119.69 223.54 119.69 228.74 119.7 228.74 119.7 223.53 119.69 223.54" style="fill: #AEDCFF; transform-origin: 119.695px 226.135px;" id="elhxf6uwx44ng" class="animable"></polygon><path d="M113.21,224.46l-2.3,5.54c2.47,1,5.5.64,8.78-1.26v-5.2C117.27,224.94,115,225.18,113.21,224.46Z" style="fill: rgb(224, 224, 224); transform-origin: 115.3px 227.041px;" id="elwptqaks1tfo" class="animable"></path></g><g id="freepik--text-box--inject-22" class="animable" style="transform-origin: 198.917px 211.157px;"><g id="elot31vmg26hq"><g style="opacity: 0.3; transform-origin: 198.917px 211.157px;" class="animable" id="elrmt92mto63i"><path d="M183.63,231.87a1.13,1.13,0,0,1-.57-.15,1.38,1.38,0,0,1-.62-1.26V210.34a3.35,3.35,0,0,1,1.52-2.65l29.43-17a1.26,1.26,0,0,1,2,1.16V212a3.32,3.32,0,0,1-1.52,2.64l-29.43,17A1.61,1.61,0,0,1,183.63,231.87Zm30.57-40.42a.7.7,0,0,0-.32.11l-29.43,17a2.34,2.34,0,0,0-1,1.79v20.12c0,.25.07.37.13.41s.2,0,.41-.09l29.43-17a2.37,2.37,0,0,0,1-1.79V191.87c0-.24-.07-.37-.13-.4Z" id="el74v6ya2g4d2" class="animable" style="transform-origin: 198.917px 211.157px;"></path></g></g><g id="elgae64ww9gk8"><g style="opacity: 0.3; transform-origin: 198.922px 211.168px;" class="animable" id="elemg2hnc9f4g"><path d="M186.93,213.94a.49.49,0,0,1-.25-.92l24-13.85a.49.49,0,0,1,.49.86l-24,13.84A.42.42,0,0,1,186.93,213.94Z" id="el0yvju3478p2h" class="animable" style="transform-origin: 198.922px 206.523px;"></path><path d="M186.93,218.58a.49.49,0,0,1-.25-.91l24-13.85a.48.48,0,0,1,.67.18.49.49,0,0,1-.18.67l-24,13.85A.5.5,0,0,1,186.93,218.58Z" id="elwd5u9k9779o" class="animable" style="transform-origin: 198.929px 211.165px;"></path><path d="M186.93,223.23a.49.49,0,0,1-.25-.92l24-13.85a.5.5,0,0,1,.67.18.49.49,0,0,1-.18.67l-24,13.85A.42.42,0,0,1,186.93,223.23Z" id="eld7jkgogtf4" class="animable" style="transform-origin: 198.92px 215.814px;"></path></g></g></g><g id="freepik--text-box--inject-22" class="animable" style="transform-origin: 154.95px 236.554px;"><g id="elhh9kdddxv2s"><g style="opacity: 0.3; transform-origin: 154.95px 236.554px;" class="animable" id="elpts43q45f7r"><path d="M139.66,257.26a1.13,1.13,0,0,1-.57-.15,1.38,1.38,0,0,1-.62-1.26V235.72a3.35,3.35,0,0,1,1.52-2.64l29.42-17a1.39,1.39,0,0,1,1.4-.08,1.37,1.37,0,0,1,.62,1.25v20.13A3.34,3.34,0,0,1,169.9,240l-29.42,17A1.61,1.61,0,0,1,139.66,257.26Zm30.57-40.42a.7.7,0,0,0-.33.11l-29.42,17a2.37,2.37,0,0,0-1,1.79v20.13c0,.24.07.37.13.4s.2,0,.41-.09l29.42-17a2.33,2.33,0,0,0,1-1.78V217.26c0-.24-.06-.37-.12-.4Z" id="el99hvr8v5kia" class="animable" style="transform-origin: 154.95px 236.554px;"></path></g></g><g id="el1zmzk11o4p9"><g style="opacity: 0.3; transform-origin: 155.005px 236.559px;" class="animable" id="elgi4hdlex0lc"><path d="M143,239.33a.49.49,0,0,1-.24-.92l24-13.85a.51.51,0,0,1,.68.18.5.5,0,0,1-.18.67l-24,13.85A.45.45,0,0,1,143,239.33Z" id="elamd5pucvgg" class="animable" style="transform-origin: 155.004px 231.914px;"></path><path d="M143,244a.49.49,0,0,1-.24-.92l24-13.84a.49.49,0,0,1,.68.18.5.5,0,0,1-.18.67l-24,13.84A.45.45,0,0,1,143,244Z" id="el6um7dm87rck" class="animable" style="transform-origin: 155.004px 236.585px;"></path><path d="M143,248.62a.49.49,0,0,1-.24-.92l24-13.85a.49.49,0,1,1,.5.85l-24,13.85A.55.55,0,0,1,143,248.62Z" id="elr9fjbyut7fk" class="animable" style="transform-origin: 155.005px 241.2px;"></path></g></g></g></g></g><g id="freepik--screen-2--inject-22" class="animable animator-active" style="transform-origin: 327.985px 217.395px;"><g id="freepik--screen-1--inject-22" class="animable" style="transform-origin: 327.985px 217.395px;"><g id="freepik--screen-1--inject-22" class="animable" style="transform-origin: 323.231px 217.395px;"><g id="elzr4puizyvia"><path d="M410.81,72.64A2.8,2.8,0,0,0,409.59,70h0l-3.15-1.79h0a2.79,2.79,0,0,0-2.88.25L239.65,163.1a8.88,8.88,0,0,0-4,7V362a2.81,2.81,0,0,0,1.2,2.61h0l3.22,1.84h0a2.84,2.84,0,0,0,2.85-.28l163.9-94.63a8.86,8.86,0,0,0,4-7Z" style="fill: #AEDCFF; opacity: 0.1; transform-origin: 323.231px 217.316px;" class="animable" id="ely5d58hac2eo"></path></g><g id="el14gr6yiqapuj"><path d="M406.79,70.32,242.9,165a8.88,8.88,0,0,0-4,7v192c0,2.56,1.8,3.6,4,2.32l163.9-94.63a8.86,8.86,0,0,0,4-7v-192C410.81,70.08,409,69,406.79,70.32Z" style="fill: #AEDCFF; opacity: 0.1; transform-origin: 324.85px 218.312px;" class="animable" id="el3uzl33jd782"></path></g><g id="el3oaya1oae92"><path d="M410.81,72.64v192a8.89,8.89,0,0,1-4,7L242.9,366.2c-2,1.13-3.61.45-4-1.51a4.15,4.15,0,0,0,.71-.34l163.91-94.62a8.92,8.92,0,0,0,4-7v-192a4.14,4.14,0,0,0-.07-.81C409.38,69.29,410.81,70.36,410.81,72.64Z" style="fill: #AEDCFF; opacity: 0.15; transform-origin: 324.855px 218.244px;" class="animable" id="elkmoub29bkzp"></path></g><path d="M406.79,70.32,364.83,95l-42.06,24.56L280.64,144l-21.06,12.21L249,162.28l-5.27,3a7.81,7.81,0,0,0-3.6,4.13,6.57,6.57,0,0,0-.54,2.69v9.13l0,12.17,0,24.35-.14,48.7-.2,48.69-.33,48.7-.33-48.7-.21-48.69-.14-48.7,0-24.35v-21.3a8.14,8.14,0,0,1,.63-3.24,10.45,10.45,0,0,1,1.67-2.8,10,10,0,0,1,1.18-1.17A10.68,10.68,0,0,1,243,164l5.27-3.05,10.53-6.1,21.11-12.14,42.21-24.28,42.3-24.14Z" style="fill: rgb(255, 255, 255); transform-origin: 322.515px 217.08px;" id="el5fh8krsyeww" class="animable"></path></g><g id="freepik--chart--inject-22" class="animable" style="transform-origin: 294.845px 190.783px;"><path d="M257,178l75.69-43.7c1.18-.67,2.13-.12,2.13,1.24v64.31a4.7,4.7,0,0,1-2.13,3.69L257,247.26c-1.18.68-2.13.13-2.13-1.23V181.71A4.71,4.71,0,0,1,257,178Z" style="fill: rgb(250, 250, 250); transform-origin: 294.845px 190.783px;" id="elxi70w7abd7r" class="animable"></path><path d="M264,231.71v1a4.48,4.48,0,0,1-.07.64,2.17,2.17,0,0,1-.17.58,1.71,1.71,0,0,1-.3.5,1.65,1.65,0,0,1-.45.37.79.79,0,0,1-.45.15.42.42,0,0,1-.3-.15.88.88,0,0,1-.17-.39,2.37,2.37,0,0,1-.06-.57c0-.14,0-.3,0-.48s0-.35,0-.49a3.49,3.49,0,0,1,.06-.65,2.7,2.7,0,0,1,.17-.59,1.8,1.8,0,0,1,.3-.5,1.55,1.55,0,0,1,.45-.39.85.85,0,0,1,.45-.14.34.34,0,0,1,.3.15.79.79,0,0,1,.17.38A3.17,3.17,0,0,1,264,231.71Zm-1.48,1.83a1.07,1.07,0,0,0,.13.56c.07.1.19.11.36,0a.91.91,0,0,0,.37-.43,2.39,2.39,0,0,0,.12-.71c0-.14,0-.3,0-.48s0-.32,0-.46a1.16,1.16,0,0,0-.12-.56c-.08-.11-.2-.11-.37,0a.8.8,0,0,0-.36.43,2,2,0,0,0-.13.7c0,.15,0,.31,0,.48S262.52,233.4,262.52,233.54Z" style="fill: rgb(69, 90, 100); transform-origin: 263.015px 232.775px;" id="elng3bbi6u34" class="animable"></path><path d="M269.51,230a.51.51,0,0,1-.43-.24.5.5,0,0,1,.18-.68l57.21-33a.5.5,0,0,1,.5.86l-57.22,33A.5.5,0,0,1,269.51,230Z" style="fill: rgb(224, 224, 224); transform-origin: 298.095px 213.018px;" id="el6uqc5ciebgj" class="animable"></path><path d="M261.07,217.39a.3.3,0,0,1,0-.1.5.5,0,0,1,0-.13l.8-1.42.06-.1a.22.22,0,0,1,.06-.07l.29-.17a.06.06,0,0,1,.07,0,.12.12,0,0,1,0,.09v3.64a.35.35,0,0,1,0,.13s0,.07-.07.08l-.3.17a0,0,0,0,1-.07,0,.12.12,0,0,1,0-.09v-2.79l-.52.93a.12.12,0,0,1-.07.07.07.07,0,0,1-.07,0Z" style="fill: rgb(69, 90, 100); transform-origin: 261.712px 217.449px;" id="el49me25x1t5s" class="animable"></path><path d="M264.83,215.41c0,.07,0,.15,0,.24v.53c0,.08,0,.16,0,.24s0,.43-.06.64a3.28,3.28,0,0,1-.17.58,2.29,2.29,0,0,1-.3.5,1.62,1.62,0,0,1-.45.37.84.84,0,0,1-.46.15.44.44,0,0,1-.3-.15,1,1,0,0,1-.17-.39,4.18,4.18,0,0,1-.06-.56c0-.15,0-.31,0-.49s0-.35,0-.49,0-.44.06-.65a3.39,3.39,0,0,1,.17-.59,2.29,2.29,0,0,1,.3-.5,1.61,1.61,0,0,1,.46-.39.82.82,0,0,1,.45-.14.4.4,0,0,1,.3.15,1,1,0,0,1,.17.39A4.18,4.18,0,0,1,264.83,215.41Zm-1.47,1.83a1.19,1.19,0,0,0,.12.56c.07.1.19.11.37,0a.8.8,0,0,0,.36-.43,2.65,2.65,0,0,0,.13-.71v-.94a1.27,1.27,0,0,0-.13-.56c-.07-.11-.19-.11-.36,0a.78.78,0,0,0-.37.43,2.32,2.32,0,0,0-.12.7c0,.15,0,.31,0,.48S263.35,217.1,263.36,217.24Z" style="fill: rgb(69, 90, 100); transform-origin: 263.845px 216.485px;" id="elcm3s9s0z06n" class="animable"></path><path d="M269.51,214.19a.49.49,0,0,1-.25-.92l57.21-33a.49.49,0,0,1,.68.18.5.5,0,0,1-.18.67l-57.22,33A.42.42,0,0,1,269.51,214.19Z" style="fill: rgb(224, 224, 224); transform-origin: 298.108px 197.195px;" id="elljv1vh2v71" class="animable"></path><path d="M262.05,201.47a1.34,1.34,0,0,0,.14-.35,1.58,1.58,0,0,0,0-.28.51.51,0,0,0-.09-.34c-.06-.07-.17-.07-.31,0a.72.72,0,0,0-.29.33,1.91,1.91,0,0,0-.14.46.29.29,0,0,1,0,.14.14.14,0,0,1-.06.07l-.29.17a.06.06,0,0,1-.08,0s0-.05,0-.1a1.93,1.93,0,0,1,.08-.52,2.25,2.25,0,0,1,.2-.51,2.28,2.28,0,0,1,.28-.43,1.29,1.29,0,0,1,.36-.31.61.61,0,0,1,.4-.11.4.4,0,0,1,.28.14.75.75,0,0,1,.16.31,1.36,1.36,0,0,1,0,.41,2.44,2.44,0,0,1,0,.27,1,1,0,0,1-.05.29,1.92,1.92,0,0,1-.12.33c0,.12-.12.26-.2.41l-.68,1.35,1-.59a0,0,0,0,1,.07,0s0,0,0,.08v.41a.27.27,0,0,1,0,.12s0,.07-.07.08l-1.71,1s0,0-.07,0a.12.12,0,0,1,0-.09v-.35a.39.39,0,0,1,0-.18.48.48,0,0,1,.06-.14Z" style="fill: rgb(69, 90, 100); transform-origin: 261.783px 201.994px;" id="elwymwrubgaqm" class="animable"></path><path d="M265.12,199.44v1a4.32,4.32,0,0,1-.07.64,2.36,2.36,0,0,1-.17.59,1.66,1.66,0,0,1-.3.49,1.68,1.68,0,0,1-.45.38.85.85,0,0,1-.45.14.37.37,0,0,1-.3-.15.79.79,0,0,1-.17-.38,2.49,2.49,0,0,1-.06-.57c0-.14,0-.3,0-.49s0-.34,0-.49a3.49,3.49,0,0,1,.06-.65,2.36,2.36,0,0,1,.17-.59,2.29,2.29,0,0,1,.3-.5,1.52,1.52,0,0,1,.45-.38.88.88,0,0,1,.45-.15.4.4,0,0,1,.3.15.78.78,0,0,1,.17.39A3,3,0,0,1,265.12,199.44Zm-1.48,1.82a1,1,0,0,0,.13.56c.07.11.19.11.36,0a.87.87,0,0,0,.37-.43,2.26,2.26,0,0,0,.12-.7c0-.15,0-.31,0-.48s0-.33,0-.47a1.19,1.19,0,0,0-.12-.56c-.08-.1-.2-.11-.37,0a.84.84,0,0,0-.36.43,2.09,2.09,0,0,0-.13.71c0,.14,0,.3,0,.47S263.64,201.12,263.64,201.26Z" style="fill: rgb(69, 90, 100); transform-origin: 264.135px 200.505px;" id="elc2jxfgx52fu" class="animable"></path><path d="M269.51,198.37a.49.49,0,0,1-.25-.91l57.21-33a.5.5,0,0,1,.5.86l-57.22,33A.5.5,0,0,1,269.51,198.37Z" style="fill: rgb(224, 224, 224); transform-origin: 298.099px 181.393px;" id="el2z5a5hvu8cg" class="animable"></path><path d="M262.6,183.6a.06.06,0,0,1,.07,0,.12.12,0,0,1,0,.09v.4a.68.68,0,0,1,0,.14l-.06.12-.53,1.18a.68.68,0,0,1,.3-.05.4.4,0,0,1,.23.1.54.54,0,0,1,.14.26,1.24,1.24,0,0,1,.05.41,2.1,2.1,0,0,1-.07.56,2.28,2.28,0,0,1-.21.51,1.9,1.9,0,0,1-.31.42,1.66,1.66,0,0,1-.4.31,1.12,1.12,0,0,1-.44.17.54.54,0,0,1-.32-.06.46.46,0,0,1-.19-.22,1.16,1.16,0,0,1-.08-.32.28.28,0,0,1,0-.13.19.19,0,0,1,.07-.08l.29-.17s.05,0,.06,0a.28.28,0,0,1,.05.08s0,.07.06.09a.16.16,0,0,0,.1.05.27.27,0,0,0,.15,0l.22-.1a1,1,0,0,0,.36-.35.86.86,0,0,0,.14-.47c0-.17-.05-.26-.14-.28a.52.52,0,0,0-.36.1l-.3.17s0,0-.07,0a.12.12,0,0,1,0-.09V186a.35.35,0,0,1,0-.14.61.61,0,0,1,.05-.12l.51-1.12-1,.58a.06.06,0,0,1-.07,0s0,0,0-.09v-.4a.27.27,0,0,1,0-.12.22.22,0,0,1,.07-.09Z" style="fill: rgb(69, 90, 100); transform-origin: 261.787px 185.906px;" id="el7ni2svddjpy" class="animable"></path><path d="M265.16,183.6v1a4.32,4.32,0,0,1-.07.64,2.85,2.85,0,0,1-.16.59,1.93,1.93,0,0,1-.31.49,1.68,1.68,0,0,1-.45.38.85.85,0,0,1-.45.14.37.37,0,0,1-.3-.15.89.89,0,0,1-.17-.38,3.22,3.22,0,0,1-.06-.57c0-.14,0-.3,0-.49s0-.34,0-.49a4.62,4.62,0,0,1,.06-.65,2.87,2.87,0,0,1,.17-.59,2.29,2.29,0,0,1,.3-.5,1.52,1.52,0,0,1,.45-.38.88.88,0,0,1,.45-.15.44.44,0,0,1,.31.15.88.88,0,0,1,.16.39A3,3,0,0,1,265.16,183.6Zm-1.48,1.82a1.14,1.14,0,0,0,.13.56c.07.11.19.11.36,0a.82.82,0,0,0,.37-.43,2.26,2.26,0,0,0,.12-.7c0-.15,0-.31,0-.48s0-.33,0-.47a1.19,1.19,0,0,0-.12-.56c-.07-.1-.2-.11-.37,0a.84.84,0,0,0-.36.43,2.37,2.37,0,0,0-.13.71c0,.14,0,.3,0,.47S263.68,185.28,263.68,185.42Z" style="fill: rgb(69, 90, 100); transform-origin: 264.175px 184.665px;" id="el1ji5yqygzhe" class="animable"></path><path d="M269.51,182.56a.49.49,0,0,1-.25-.92l57.21-33a.49.49,0,1,1,.5.85l-57.22,33A.42.42,0,0,1,269.51,182.56Z" style="fill: rgb(224, 224, 224); transform-origin: 298.109px 165.566px;" id="elxp88dj3bq3b" class="animable"></path><path d="M269.51,229.51v-45s5.7-4,9.85,9.22,12.7,7.92,18.37-1.64,8.22-19.19,14.32-22.71,10.53,8.84,14.67,6.45v20.69Z" style="fill: #AEDCFF; transform-origin: 298.115px 199.127px;" id="elu6orhe4e2j" class="animable"></path><g id="elc7ty7a44jv8"><path d="M269.51,229.51v-45s5.7-4,9.85,9.22,12.7,7.92,18.37-1.64,8.22-19.19,14.32-22.71,10.53,8.84,14.67,6.45v20.69Z" style="opacity: 0.2; transform-origin: 298.115px 199.127px;" class="animable" id="el90fbdnxbfh"></path></g><path d="M269.51,222.68s3-14.65,5.86-16.29c3.67-2.12,4.15,11.13,10.5,7.47s8-36.3,14.48-40.06,7.53,14.61,12.33,11.84,5.91-13.1,14-17.79v28.63l-57.21,33Z" style="fill: #AEDCFF; transform-origin: 298.075px 198.665px;" id="ela1rby6cx4o5" class="animable"></path><g id="elplyx784b2sn"><path d="M321.11,173.12c-3.48,4.85-5,10.56-8.43,12.52-3,1.74-4.55-4.92-6.9-9.13-2.49,4.38-4.73,9.94-8,15.54a27.78,27.78,0,0,1-5.91,7.25c-1.64,7-3.42,13.09-5.95,14.56-6.35,3.66-6.83-9.59-10.49-7.47-2.85,1.64-5.87,16.29-5.87,16.29v6.83l57.21-33V175.79C324.94,176.82,323.1,175.11,321.11,173.12Z" style="opacity: 0.1; transform-origin: 298.165px 201.315px;" class="animable" id="eln1r8kf7qia"></path></g></g><g id="freepik--chart--inject-22" class="animable" style="transform-origin: 294.845px 283.14px;"><path d="M257,270.37l75.69-43.7c1.18-.68,2.13-.13,2.13,1.23v64.32a4.7,4.7,0,0,1-2.13,3.69L257,339.61c-1.18.68-2.13.13-2.13-1.23V274.06A4.7,4.7,0,0,1,257,270.37Z" style="fill: rgb(250, 250, 250); transform-origin: 294.845px 283.14px;" id="eleb75lhhb9gf" class="animable"></path><polygon points="267.32 322.52 263.12 324.94 263.12 277.99 267.32 275.57 267.32 322.52" style="fill: rgb(224, 224, 224); transform-origin: 265.22px 300.255px;" id="eluopq77wnfsi" class="animable"></polygon><polygon points="274.73 318.24 270.53 320.66 270.53 273.71 274.73 271.29 274.73 318.24" style="fill: rgb(224, 224, 224); transform-origin: 272.63px 295.975px;" id="elmr6afn75t2g" class="animable"></polygon><polygon points="282.14 313.96 277.94 316.38 277.94 269.44 282.14 267.01 282.14 313.96" style="fill: rgb(224, 224, 224); transform-origin: 280.04px 291.695px;" id="elgouzpepi2lq" class="animable"></polygon><polygon points="289.55 309.68 285.35 312.11 285.35 265.16 289.55 262.73 289.55 309.68" style="fill: rgb(224, 224, 224); transform-origin: 287.45px 287.42px;" id="elgj3iljmzwvo" class="animable"></polygon><polygon points="296.96 305.4 292.76 307.83 292.76 260.88 296.96 258.45 296.96 305.4" style="fill: rgb(224, 224, 224); transform-origin: 294.86px 283.14px;" id="el0exf80m3kczf" class="animable"></polygon><polygon points="304.37 301.12 300.18 303.55 300.18 256.6 304.37 254.18 304.37 301.12" style="fill: rgb(224, 224, 224); transform-origin: 302.275px 278.865px;" id="eld0fcjo72rke" class="animable"></polygon><polygon points="300.18 256.6 304.37 254.18 304.37 275.6 300.18 278.03 300.18 256.6" style="fill: #AEDCFF; transform-origin: 302.275px 266.105px;" id="elk4zub5y60ae" class="animable"></polygon><polygon points="311.79 296.85 307.59 299.27 307.59 252.32 311.79 249.9 311.79 296.85" style="fill: rgb(224, 224, 224); transform-origin: 309.69px 274.585px;" id="el197nnrg11g9" class="animable"></polygon><polygon points="319.2 292.57 315 294.99 315 248.04 319.2 245.62 319.2 292.57" style="fill: rgb(224, 224, 224); transform-origin: 317.1px 270.305px;" id="ela93rair1eyl" class="animable"></polygon><polygon points="326.61 288.29 322.41 290.71 322.41 243.76 326.61 241.34 326.61 288.29" style="fill: rgb(224, 224, 224); transform-origin: 324.51px 266.025px;" id="eluzajrzrp4j" class="animable"></polygon><polygon points="263.12 288.24 267.32 285.82 267.32 312.03 263.12 314.46 263.12 288.24" style="fill: #AEDCFF; transform-origin: 265.22px 300.14px;" id="eldo8gwmdk8h" class="animable"></polygon><g id="eldws6kzuyhsw"><polygon points="263.12 314.46 267.32 312.03 267.32 322.52 263.12 324.94 263.12 314.46" style="opacity: 0.15; transform-origin: 265.22px 318.485px;" class="animable" id="el9upgm5ee1pq"></polygon></g><polygon points="270.53 289.92 274.73 287.5 274.73 296.94 270.53 299.36 270.53 289.92" style="fill: #AEDCFF; transform-origin: 272.63px 293.43px;" id="elmuhzliai48k" class="animable"></polygon><g id="elxnlyok4zwcn"><polygon points="270.53 299.36 274.73 296.94 274.73 318.24 270.53 320.66 270.53 299.36" style="opacity: 0.15; transform-origin: 272.63px 308.8px;" class="animable" id="ele2g1zkha2i"></polygon></g><polygon points="277.94 273.37 282.14 270.94 282.14 279.18 277.94 281.6 277.94 273.37" style="fill: #AEDCFF; transform-origin: 280.04px 276.27px;" id="elwvo2bwhkfat" class="animable"></polygon><g id="el1nzdost6sq2h"><polygon points="277.94 281.6 282.14 279.18 282.14 313.96 277.94 316.38 277.94 281.6" style="opacity: 0.15; transform-origin: 280.04px 297.78px;" class="animable" id="elhlrko1rdxwg"></polygon></g><polygon points="285.35 275.41 289.55 272.98 289.55 293.73 285.35 296.15 285.35 275.41" style="fill: #AEDCFF; transform-origin: 287.45px 284.565px;" id="ellchx0yzhi4s" class="animable"></polygon><g id="el9bhzds71x8n"><polygon points="285.35 296.15 289.55 293.73 289.55 309.68 285.35 312.11 285.35 296.15" style="opacity: 0.15; transform-origin: 287.45px 302.92px;" class="animable" id="elzlrlz1en9o"></polygon></g><polygon points="292.76 279.56 296.96 277.13 296.96 285.9 292.76 288.33 292.76 279.56" style="fill: #AEDCFF; transform-origin: 294.86px 282.73px;" id="elm41w2hx314" class="animable"></polygon><g id="el29wl329fdkc"><polygon points="292.76 288.33 296.96 285.9 296.96 305.4 292.76 307.83 292.76 288.33" style="opacity: 0.15; transform-origin: 294.86px 296.865px;" class="animable" id="elor9s18tywx"></polygon></g><g id="el9citgt2uyg"><polygon points="300.18 278.03 304.37 275.6 304.37 301.12 300.18 303.55 300.18 278.03" style="opacity: 0.15; transform-origin: 302.275px 289.575px;" class="animable" id="elphkrubg82p"></polygon></g><polygon points="307.59 277.15 311.79 274.73 311.79 285.05 307.59 287.47 307.59 277.15" style="fill: #AEDCFF; transform-origin: 309.69px 281.1px;" id="elzo1y9xotynd" class="animable"></polygon><g id="elqp80g4h9ea"><polygon points="307.59 287.47 311.79 285.05 311.79 296.85 307.59 299.27 307.59 287.47" style="opacity: 0.15; transform-origin: 309.69px 292.16px;" class="animable" id="elwhzedhdocq"></polygon></g><polygon points="315 256.09 319.2 253.66 319.2 277.01 315 279.43 315 256.09" style="fill: #AEDCFF; transform-origin: 317.1px 266.545px;" id="el4wfjz0t0dow" class="animable"></polygon><g id="elx9x0ipl88pm"><polygon points="315 279.43 319.2 277.01 319.2 292.57 315 294.99 315 279.43" style="opacity: 0.15; transform-origin: 317.1px 286px;" class="animable" id="elp5q1wbd0n1"></polygon></g><polygon points="322.41 264.53 326.61 262.11 326.61 270.23 322.41 272.65 322.41 264.53" style="fill: #AEDCFF; transform-origin: 324.51px 267.38px;" id="elmcbs65mk2jc" class="animable"></polygon><polygon points="322.41 272.65 326.61 270.23 326.61 288.29 322.41 290.71 322.41 272.65" style="fill: #AEDCFF; transform-origin: 324.51px 280.47px;" id="elnj1lijss0j" class="animable"></polygon><polygon points="263.12 314.46 267.32 312.03 267.32 322.52 263.12 324.94 263.12 314.46" style="fill: #AEDCFF; transform-origin: 265.22px 318.485px;" id="el7oj1f6vh0e7" class="animable"></polygon><g id="eln6514kv3mro"><polygon points="263.12 314.46 267.32 312.03 267.32 322.52 263.12 324.94 263.12 314.46" style="opacity: 0.2; transform-origin: 265.22px 318.485px;" class="animable" id="eliflck6m9hkb"></polygon></g><polygon points="270.53 299.36 274.73 296.94 274.73 318.24 270.53 320.66 270.53 299.36" style="fill: #AEDCFF; transform-origin: 272.63px 308.8px;" id="elg9lryzjlmvi" class="animable"></polygon><g id="elslv279a4bl"><polygon points="270.53 299.36 274.73 296.94 274.73 318.24 270.53 320.66 270.53 299.36" style="opacity: 0.2; transform-origin: 272.63px 308.8px;" class="animable" id="elxupqs4srx"></polygon></g><polygon points="277.94 281.6 282.14 279.18 282.14 313.96 277.94 316.38 277.94 281.6" style="fill: #AEDCFF; transform-origin: 280.04px 297.78px;" id="el53ntzi80n1l" class="animable"></polygon><g id="el2yj2b99po4h"><polygon points="277.94 281.6 282.14 279.18 282.14 313.96 277.94 316.38 277.94 281.6" style="opacity: 0.2; transform-origin: 280.04px 297.78px;" class="animable" id="elyfybs44lc4r"></polygon></g><polygon points="285.35 296.15 289.55 293.73 289.55 309.68 285.35 312.11 285.35 296.15" style="fill: #AEDCFF; transform-origin: 287.45px 302.92px;" id="elqfws5837vxf" class="animable"></polygon><g id="ele3ymnuz72ps"><polygon points="285.35 296.15 289.55 293.73 289.55 309.68 285.35 312.11 285.35 296.15" style="opacity: 0.2; transform-origin: 287.45px 302.92px;" class="animable" id="eldwgceoq3msv"></polygon></g><polygon points="292.76 288.33 296.96 285.9 296.96 305.4 292.76 307.83 292.76 288.33" style="fill: #AEDCFF; transform-origin: 294.86px 296.865px;" id="el0pu1qi1d5ss" class="animable"></polygon><g id="eltlwdsnocdq"><polygon points="292.76 288.33 296.96 285.9 296.96 305.4 292.76 307.83 292.76 288.33" style="opacity: 0.2; transform-origin: 294.86px 296.865px;" class="animable" id="el5hcqm66jf5m"></polygon></g><polygon points="300.18 278.03 304.37 275.6 304.37 301.12 300.18 303.55 300.18 278.03" style="fill: #AEDCFF; transform-origin: 302.275px 289.575px;" id="elpvgft8akpga" class="animable"></polygon><g id="elddciufqmufs"><polygon points="300.18 278.03 304.37 275.6 304.37 301.12 300.18 303.55 300.18 278.03" style="opacity: 0.2; transform-origin: 302.275px 289.575px;" class="animable" id="elio78ixqbd3"></polygon></g><polygon points="307.59 287.47 311.79 285.05 311.79 296.85 307.59 299.27 307.59 287.47" style="fill: #AEDCFF; transform-origin: 309.69px 292.16px;" id="el89qozby1h9" class="animable"></polygon><g id="elysbiv6v39j"><polygon points="307.59 287.47 311.79 285.05 311.79 296.85 307.59 299.27 307.59 287.47" style="opacity: 0.2; transform-origin: 309.69px 292.16px;" class="animable" id="elu5dvmo4mv2"></polygon></g><polygon points="315 279.43 319.2 277.01 319.2 292.57 315 294.99 315 279.43" style="fill: #AEDCFF; transform-origin: 317.1px 286px;" id="el2o2nlweki8f" class="animable"></polygon><g id="elfe2l7jljiip"><polygon points="315 279.43 319.2 277.01 319.2 292.57 315 294.99 315 279.43" style="opacity: 0.2; transform-origin: 317.1px 286px;" class="animable" id="elrhe64zpkuzh"></polygon></g><g id="elm4d91u4pfg"><polygon points="322.41 272.65 326.61 270.23 326.61 288.29 322.41 290.71 322.41 272.65" style="opacity: 0.2; transform-origin: 324.51px 280.47px;" class="animable" id="elj4xzddpmi1"></polygon></g></g><g id="freepik--chart--inject-22" class="animable" style="transform-origin: 387.7px 173.67px;"><path d="M357.7,156.36l60-34.62c1.17-.68,2.13-.13,2.13,1.23v64.32a4.73,4.73,0,0,1-2.13,3.69l-60,34.62c-1.17.68-2.13.13-2.13-1.23V160.05A4.73,4.73,0,0,1,357.7,156.36Z" style="fill: rgb(250, 250, 250); transform-origin: 387.7px 173.67px;" id="ela9zukt5fui" class="animable"></path><path d="M356.75,226.39a1.57,1.57,0,0,1-.8-.21,2,2,0,0,1-.88-1.81V160.05a5.22,5.22,0,0,1,2.38-4.13l60-34.61a1.93,1.93,0,0,1,2-.15,2,2,0,0,1,.88,1.81v64.32a5.2,5.2,0,0,1-2.38,4.12L358,226A2.4,2.4,0,0,1,356.75,226.39ZM418.62,122a1.41,1.41,0,0,0-.7.22l-60,34.62a4.23,4.23,0,0,0-1.88,3.26v64.32a.82.82,0,0,0,1.38.8l60-34.62a4.23,4.23,0,0,0,1.88-3.26V123a1.05,1.05,0,0,0-.38-1A.56.56,0,0,0,418.62,122Z" style="fill: rgb(224, 224, 224); transform-origin: 387.7px 173.67px;" id="elgbirzo531ac" class="animable"></path><path d="M387.69,152.55c3.47-2,6.68-2.34,9.29-1.32l-9.29,22.44Z" style="fill: rgb(69, 90, 100); transform-origin: 392.335px 162.171px;" id="el2no6rtwttnl" class="animable"></path><path d="M378.39,162a28.88,28.88,0,0,1,9.3-9.42v21.12Z" style="fill: #AEDCFF; transform-origin: 383.04px 163.14px;" id="el7cgyulkej88" class="animable"></path><path d="M372.63,175.84A42.14,42.14,0,0,1,378.39,162l9.3,11.7Z" style="fill: #AEDCFF; transform-origin: 380.16px 168.92px;" id="elqq236q8bvqg" class="animable"></path><path d="M397,151.23c2.68,1.06,4.72,3.54,5.76,7.22l-15.05,15.22Z" style="fill: rgb(69, 90, 100); transform-origin: 395.235px 162.45px;" id="elm1uz85fcetl" class="animable"></path><path d="M372.63,188.89a22.37,22.37,0,0,1-.78-6.08,33.53,33.53,0,0,1,.78-7l15.06-2.17Z" style="fill: #AEDCFF; transform-origin: 379.769px 181.265px;" id="elc7z7ti1gwa" class="animable"></path><path d="M402.74,171.5A42.14,42.14,0,0,1,397,185.37l-9.29-11.7Z" style="fill: #AEDCFF; transform-origin: 395.225px 178.435px;" id="el6k8wiab1ytx" class="animable"></path><path d="M387.69,194.78c-3.48,2-6.69,2.35-9.3,1.32l9.3-22.43Z" style="fill: #AEDCFF; transform-origin: 383.04px 185.167px;" id="elndgk5r25o9" class="animable"></path><path d="M372.63,188.89l15.06-15.22-9.3,22.43C375.71,195.05,373.67,192.56,372.63,188.89Z" style="fill: #AEDCFF; transform-origin: 380.16px 184.885px;" id="elai10q5hysz" class="animable"></path><g id="el7ykkgdsvjcr"><path d="M378.39,162a42.14,42.14,0,0,0-5.76,13.87,33.53,33.53,0,0,0-.78,7,22.37,22.37,0,0,0,.78,6.08c1,3.67,3.08,6.16,5.76,7.21l9.3-22.43Z" style="opacity: 0.1; transform-origin: 379.769px 179.08px;" class="animable" id="elwjnsdtzmh8"></path></g><path d="M402.74,158.45a22.37,22.37,0,0,1,.78,6.08,33.68,33.68,0,0,1-.78,7l-15.05,2.17Z" style="fill: #AEDCFF; transform-origin: 395.606px 166.075px;" id="el0xsswbbmwt1" class="animable"></path><path d="M397,185.37a28.91,28.91,0,0,1-9.29,9.41V173.67Z" style="fill: #AEDCFF; transform-origin: 392.355px 184.225px;" id="el9zm4cq0fzfs" class="animable"></path><g id="eloxlftuiuo4"><path d="M402.74,158.45l-15.05,15.22-9.3,22.43c2.61,1,5.82.69,9.3-1.32a28.91,28.91,0,0,0,9.29-9.41,42.14,42.14,0,0,0,5.76-13.87,33.68,33.68,0,0,0,.78-7A22.37,22.37,0,0,0,402.74,158.45Z" style="opacity: 0.2; transform-origin: 390.955px 177.551px;" class="animable" id="el4dykdrvyxgd"></path></g><path d="M380.15,201.72a10,10,0,0,1-5.12-1.34c-4.32-2.49-6.8-8.24-6.8-15.76,0-14.1,8.62-30.55,19.21-36.67,4.72-2.72,9.3-3.08,12.9-1,4.32,2.5,6.8,8.25,6.8,15.77,0,14.1-8.62,30.55-19.21,36.66A15.68,15.68,0,0,1,380.15,201.72Zm15.07-55.12a14.75,14.75,0,0,0-7.29,2.21c-10.32,6-18.72,22-18.72,35.81,0,7.16,2.3,12.6,6.31,14.91,3.29,1.9,7.52,1.54,11.92-1,10.32-6,18.72-22,18.72-35.81,0-7.16-2.3-12.6-6.31-14.91A9.07,9.07,0,0,0,395.22,146.6Z" style="fill: rgb(224, 224, 224); transform-origin: 387.685px 173.667px;" id="elr91k9g2z1qf" class="animable"></path></g><g id="freepik--speech-bubble--inject-22" class="animable" style="transform-origin: 370.84px 117.729px;"><path d="M353.47,140.92a1.77,1.77,0,0,1-.87-.23,2.13,2.13,0,0,1-.94-2V118.37a5.74,5.74,0,0,1,2.63-4.56L386.85,95A1.93,1.93,0,0,1,390,96.82v20.35a5.75,5.75,0,0,1-2.63,4.56l-4.82,2.78-3.26,11.07a1.12,1.12,0,0,1-1,.82,1.14,1.14,0,0,1-1.12-.69l-2.8-6.46-19.54,11.27A2.67,2.67,0,0,1,353.47,140.92Zm33.87-45.06-32.56,18.8a4.82,4.82,0,0,0-2.14,3.71v20.35a1,1,0,0,0,1.65.95l20.49-11.83,3.24,7.48a.16.16,0,0,0,.16.1.16.16,0,0,0,.14-.12l3.36-11.44,5.17-3a4.81,4.81,0,0,0,2.14-3.7V96.82a1,1,0,0,0-1.65-1Z" style="fill: #AEDCFF; transform-origin: 370.84px 117.729px;" id="elc13tb8m3q4b" class="animable"></path><path d="M359.62,120.39a.49.49,0,0,1-.25-.92l22.4-12.93a.49.49,0,1,1,.49.85l-22.4,12.93A.42.42,0,0,1,359.62,120.39Z" style="fill: #AEDCFF; transform-origin: 370.81px 113.432px;" id="el2nuptectubg" class="animable"></path><path d="M359.62,124.72a.49.49,0,0,1-.25-.91l22.4-12.94a.5.5,0,0,1,.67.18.49.49,0,0,1-.18.68l-22.4,12.93A.5.5,0,0,1,359.62,124.72Z" style="fill: #AEDCFF; transform-origin: 370.821px 117.764px;" id="elmul5s1hyezm" class="animable"></path><path d="M359.62,129.06a.51.51,0,0,1-.43-.24.5.5,0,0,1,.18-.68l22.4-12.93a.5.5,0,0,1,.67.18.48.48,0,0,1-.18.67L359.86,129A.5.5,0,0,1,359.62,129.06Z" style="fill: #AEDCFF; transform-origin: 370.817px 122.104px;" id="elokxcjn80rp" class="animable"></path></g><g id="freepik--check-list--inject-22" class="animable" style="transform-origin: 369.33px 253.652px;"><path d="M346.83,255.91a.5.5,0,0,1-.24-.06.48.48,0,0,1-.25-.43v-9.23a.48.48,0,0,1,.25-.43l8-4.61a.5.5,0,0,1,.74.42v9.24a.48.48,0,0,1-.25.42l-8,4.62A.54.54,0,0,1,346.83,255.91Zm.49-9.44v8.1l7-4v-8.09Z" style="fill: #AEDCFF; transform-origin: 350.835px 248.499px;" id="eldh7k3z026bf" class="animable"></path><path id="freepik--check--inject-22" d="M355.76,239.26a1,1,0,0,0-1.27.52l-3.66,8.72-.87-.85A1,1,0,0,0,348.6,249l1.9,1.84a.94.94,0,0,0,.67.27.68.68,0,0,0,.2,0,1,1,0,0,0,.7-.57l4.21-10A1,1,0,0,0,355.76,239.26Z" style="fill: rgb(69, 90, 100); transform-origin: 352.416px 245.155px;" class="animable"></path><path d="M361.62,240.88l29.42-17c.71-.41,1.28-.12,1.28.65a2.74,2.74,0,0,1-1.28,2.13l-29.42,17c-.7.41-1.28.11-1.28-.65A2.75,2.75,0,0,1,361.62,240.88Z" style="fill: rgb(69, 90, 100); transform-origin: 376.33px 233.769px;" id="el45ycz6tlfce" class="animable"></path><path d="M346.83,269.76a.57.57,0,0,1-.25-.06.5.5,0,0,1-.24-.43V260a.5.5,0,0,1,.24-.43l8-4.61a.48.48,0,0,1,.49,0,.47.47,0,0,1,.25.42v9.23a.48.48,0,0,1-.25.43l-8,4.62A.54.54,0,0,1,346.83,269.76Zm.49-9.44v8.1l7-4.05v-8.1Z" style="fill: #AEDCFF; transform-origin: 350.83px 262.326px;" id="elgbgiqx4x7x6" class="animable"></path><path id="freepik--check--inject-22" d="M355.76,253.11a1,1,0,0,0-1.27.52l-3.66,8.72-.87-.85a1,1,0,0,0-1.36,1.39l1.9,1.84a1,1,0,0,0,.67.27.68.68,0,0,0,.2,0,1,1,0,0,0,.7-.57l4.21-10A1,1,0,0,0,355.76,253.11Z" style="fill: rgb(69, 90, 100); transform-origin: 352.406px 259.025px;" class="animable"></path><path d="M361.62,254.68l29.42-17c.71-.4,1.28-.11,1.28.66a2.74,2.74,0,0,1-1.28,2.13l-29.42,17c-.7.41-1.28.12-1.28-.65A2.77,2.77,0,0,1,361.62,254.68Z" style="fill: rgb(69, 90, 100); transform-origin: 376.33px 247.578px;" id="elhwhpafhgphq" class="animable"></path><path d="M346.83,283.61a.49.49,0,0,1-.49-.49v-9.23a.5.5,0,0,1,.24-.43l8-4.61a.48.48,0,0,1,.49,0,.47.47,0,0,1,.25.42v9.23a.48.48,0,0,1-.25.43l-8,4.61A.45.45,0,0,1,346.83,283.61Zm.49-9.44v8.1l7-4v-8.1Z" style="fill: #AEDCFF; transform-origin: 350.83px 276.196px;" id="elbx92q34t08f" class="animable"></path><path id="freepik--check--inject-22" d="M355.76,267a1,1,0,0,0-1.27.51l-3.66,8.72-.87-.84a1,1,0,0,0-1.36,1.39l1.9,1.84a1,1,0,0,0,.67.27l.2,0a1,1,0,0,0,.7-.57l4.21-10A1,1,0,0,0,355.76,267Z" style="fill: rgb(69, 90, 100); transform-origin: 352.406px 272.911px;" class="animable"></path><path d="M361.62,268.49l29.42-17c.71-.41,1.28-.12,1.28.65a2.74,2.74,0,0,1-1.28,2.13l-29.42,17c-.7.41-1.28.11-1.28-.65A2.75,2.75,0,0,1,361.62,268.49Z" style="fill: rgb(69, 90, 100); transform-origin: 376.33px 261.379px;" id="el829nia7xmhw" class="animable"></path></g></g></g><g id="freepik--speech-bubbles--inject-22" class="animable animator-hidden" style="transform-origin: 129.657px 93.886px;"><g id="freepik--speech-bubbles--inject-22" class="animable" style="transform-origin: 179.458px 80.1603px;"><path d="M177.58,105.55a1.92,1.92,0,0,1-.91-.23,2.27,2.27,0,0,1-1-2.09V81.44a6.12,6.12,0,0,1,2.8-4.85l34.86-20.13a2,2,0,0,1,3.3,1.9V80.15a6.12,6.12,0,0,1-2.8,4.86l-5.18,3-3.49,11.86a1.19,1.19,0,0,1-2.23.14l-3-7L179,105.14A2.86,2.86,0,0,1,177.58,105.55Zm36.26-48.24L179,77.44a5.2,5.2,0,0,0-2.31,4v21.79a1.36,1.36,0,0,0,.51,1.23,1.33,1.33,0,0,0,1.31-.18l21.91-12.64,3.45,8a.19.19,0,0,0,.2.12.19.19,0,0,0,.19-.14l3.59-12.25,5.52-3.18a5.19,5.19,0,0,0,2.31-4V58.36a1.08,1.08,0,0,0-1.81-1Z" style="fill: #AEDCFF; transform-origin: 196.168px 80.7454px;" id="el26jqw5niltb" class="animable"></path><path d="M184.17,83.57a.51.51,0,0,1-.43-.24.49.49,0,0,1,.18-.68l24-13.85a.5.5,0,0,1,.5.86l-24,13.85A.53.53,0,0,1,184.17,83.57Z" style="fill: #AEDCFF; transform-origin: 196.148px 76.1628px;" id="elx5kamzugnqa" class="animable"></path><path d="M184.17,88.21a.49.49,0,0,1-.43-.24.48.48,0,0,1,.18-.67l24-13.85a.49.49,0,0,1,.68.18.5.5,0,0,1-.18.67l-24,13.85A.53.53,0,0,1,184.17,88.21Z" style="fill: #AEDCFF; transform-origin: 196.166px 80.7949px;" id="elmkgxv4jnq08" class="animable"></path><path d="M184.17,92.86a.5.5,0,0,1-.43-.25.48.48,0,0,1,.18-.67l24-13.85a.5.5,0,1,1,.5.86l-24,13.84A.44.44,0,0,1,184.17,92.86Z" style="fill: #AEDCFF; transform-origin: 196.192px 85.4273px;" id="elx2adsxux88" class="animable"></path><path d="M144.16,104.38a1.82,1.82,0,0,1-.91-.24,2.26,2.26,0,0,1-1-2.08V80.27a6.1,6.1,0,0,1,2.8-4.85l34.86-20.13a2,2,0,0,1,3.3,1.9V71a.5.5,0,0,1-.5.49h0a.49.49,0,0,1-.49-.49V57.19a1.36,1.36,0,0,0-.5-1.23,1.38,1.38,0,0,0-1.32.18L145.55,76.27a5.18,5.18,0,0,0-2.31,4v21.79a1.08,1.08,0,0,0,1.82,1L172.45,87.3a.49.49,0,0,1,.68.18.5.5,0,0,1-.18.67L145.55,104A2.78,2.78,0,0,1,144.16,104.38Z" style="fill: #AEDCFF; transform-origin: 162.748px 79.5754px;" id="el8w1tin6fp6l" class="animable"></path><path d="M150.74,82.4a.49.49,0,0,1-.24-.92l24-13.85a.51.51,0,0,1,.68.18.5.5,0,0,1-.18.67L151,82.33A.45.45,0,0,1,150.74,82.4Z" style="fill: #AEDCFF; transform-origin: 162.744px 74.9837px;" id="elpcxn4yeshg" class="animable"></path><path d="M150.74,87a.49.49,0,0,1-.24-.92l24-13.84a.49.49,0,0,1,.68.18.5.5,0,0,1-.18.67L151,87A.54.54,0,0,1,150.74,87Z" style="fill: #AEDCFF; transform-origin: 162.744px 79.5928px;" id="el64duo2830c" class="animable"></path><path d="M150.74,91.69a.49.49,0,0,1-.24-.92l21.43-12.4a.48.48,0,0,1,.67.18.5.5,0,0,1-.18.67L151,91.62A.45.45,0,0,1,150.74,91.69Z" style="fill: #AEDCFF; transform-origin: 161.454px 84.9954px;" id="elkosfw2dfssl" class="animable"></path></g><g id="freepik--speech-bubble--inject-22" class="animable" style="transform-origin: 61.22px 112.063px;"><g id="freepik--speech-bubble--inject-22" class="animable" style="transform-origin: 61.22px 112.063px;"><path d="M64.33,130.09l-2.43-4.57,2-5.64v-3.46l-6,3.46v3.45l2.57,4.45a.39.39,0,0,0,.18.16h0Z" style="fill: #AEDCFF; transform-origin: 61.115px 123.255px;" id="el2dedrg0hlbx" class="animable"></path><g id="elxeu9igasr28"><path d="M64.33,130.09l-2.43-4.57,2-5.64v-3.46l-6,3.46v3.45l2.57,4.45a.39.39,0,0,0,.18.16h0Z" style="opacity: 0.2; transform-origin: 61.115px 123.255px;" class="animable" id="eleeu7q4l1rzj"></path></g><path d="M79.8,95.5A4,4,0,0,0,78,92.39l-1.46-.84a4,4,0,0,0-3.59,0L44.43,108a4,4,0,0,0-1.79,3.11v17.49a4,4,0,0,0,1.79,3.11l1.46.84a4,4,0,0,0,3.59,0l12.15-7.07L64.19,130a.39.39,0,0,0,.7-.07l2.71-7.83,10.41-6A4,4,0,0,0,79.8,113Z" style="fill: #AEDCFF; transform-origin: 61.22px 112.05px;" id="elx3809e2r54n" class="animable"></path><g id="ell38c3shfac"><path d="M42.64,128.62a4,4,0,0,0,1.79,3.11l1.46.84a4,4,0,0,0,3.28.15c-.84.32-1.49-.16-1.49-1.18V114a3.59,3.59,0,0,1,.53-1.76l-5.05-2.92a3.75,3.75,0,0,0-.52,1.77Z" style="opacity: 0.2; transform-origin: 45.905px 121.161px;" class="animable" id="ell6g09vkzyto"></path></g><g id="elvc7d1xvnxp"><path d="M79.74,95c-.21-.76-.9-1-1.73-.53L49.48,110.94a3.5,3.5,0,0,0-1.27,1.34l-5-2.91A3.55,3.55,0,0,1,44.43,108L73,91.55a4,4,0,0,1,3.59,0L78,92.4A3.9,3.9,0,0,1,79.74,95Z" style="fill: rgb(255, 255, 255); opacity: 0.4; transform-origin: 61.475px 101.702px;" class="animable" id="eljo2mi8idc9l"></path></g></g><path d="M55,115.82A5.3,5.3,0,0,0,52.58,120c0,1.53,1.07,2.14,2.39,1.38a5.29,5.29,0,0,0,2.39-4.14C57.36,115.68,56.29,115.06,55,115.82Z" style="fill: rgb(255, 255, 255); transform-origin: 54.97px 118.601px;" id="elj3niblf643e" class="animable"></path><path d="M63.8,110.72a5.27,5.27,0,0,0-2.4,4.14c0,1.53,1.07,2.15,2.4,1.39a5.3,5.3,0,0,0,2.39-4.15C66.19,110.57,65.12,110,63.8,110.72Z" style="fill: rgb(255, 255, 255); transform-origin: 63.795px 113.493px;" id="elk5i5uvw6tge" class="animable"></path><path d="M72.62,105.61a5.3,5.3,0,0,0-2.39,4.15c0,1.53,1.07,2.14,2.39,1.38A5.29,5.29,0,0,0,75,107C75,105.47,73.94,104.85,72.62,105.61Z" style="fill: rgb(255, 255, 255); transform-origin: 72.615px 108.376px;" id="elapb1o129bhh" class="animable"></path></g></g><g id="freepik--character-1--inject-22" class="animable animator-hidden" style="transform-origin: 415.565px 273.953px;"><g id="freepik--character--inject-22" class="animable" style="transform-origin: 415.565px 273.953px;"><polygon points="421.18 191.62 422.38 204.11 433.55 203.42 432.66 189.56 421.18 191.62" style="fill: rgb(255, 168, 167); transform-origin: 427.365px 196.835px;" id="eldw68udwlihj" class="animable"></polygon><path d="M435.38,197.15c6.08-1.29,8.76,2.35,11.43,8.86s9.51,20.86,10.62,25.21c.5,1.95-15.79,21.43-15.26,21.17.16-.08-4.82-8.41-4.82-8.41l9.07-12.76L440,221Z" style="fill: rgb(255, 168, 167); transform-origin: 446.411px 224.642px;" id="el7yv8515bgx5" class="animable"></path><path d="M464,343.53c-1.25-3.85-5.95-18.55-7.58-22.74-2.58-6.64-4.24-10.16-9.66-13.56,0,0,.29-33.18,0-45-.37-15.12-3.71-20.19-3.71-20.19l-35,2s-3,25.77-3.56,37.64c-.67,13.37-.67,17.57-.34,24.86.21,4.58.86,8.76,1.21,15.72S407.8,364,407.8,364l.05-.08A9,9,0,0,0,408,365c.32,1.25,1.67,2.67,4.14,2.72,3.51.07,4.62-1.68,4.81-2.81,0-.19.07-.41.1-.64l.06,0s2.6-14.83,4.32-26.14a106.61,106.61,0,0,0,1.45-15.78,58.75,58.75,0,0,0-1.53-9.66l5-32.51s4.29,27.68,5,30.33c.48,1.85,11.9,19.51,18.77,30h0c3,4.57,9.75,14.56,10.18,15.12,1.49,2,6.48-5.17,6.48-5.17Z" style="fill: rgb(255, 168, 167); transform-origin: 435.357px 304.881px;" id="el0q24rknwg8s" class="animable"></path><path d="M457.71,351.85c3.61,4.92,5.56,17.95,4.51,19.88s4.18,0,4.9-2.92.85-17.19.85-17.19Z" style="fill: rgb(255, 168, 167); transform-origin: 462.84px 362.063px;" id="elmdkafx3q98t" class="animable"></path><path d="M407.74,363.41c-.08,3.81-2.65,13.7-6.37,14.87s1.67,3.89,4.49,2.83,7.09-9.5,9.28-11.59,2.32-7.4,2.32-7.4Z" style="fill: rgb(255, 168, 167); transform-origin: 408.782px 371.735px;" id="elqrv852ewa1" class="animable"></path><path d="M407.76,239.9s-1.22,3.85-2.39,18-3.49,34.18-3.65,42.19c0,0,6.18-1.55,8.8-7.2,0,0,4.36,9.43,14.55,11.5s20.42-.69,22.44-6.76c-.06-.66.26-32.59,0-40s-3.1-13.67-5.91-19.93Z" style="fill: rgb(55, 71, 79); transform-origin: 424.667px 271.386px;" id="eltewet8vtck" class="animable"></path><path d="M405.86,384.81s.84,1.48,5.39-.43,5.84-4.19,5.84-4.19-1.18-9.15-4-6.85S405.86,384.81,405.86,384.81Z" style="fill: #AEDCFF; transform-origin: 411.475px 379.163px;" id="elptwzurwu76r" class="animable"></path><g id="el2e5oms471us"><path d="M405.86,384.81s.84,1.48,5.39-.43,5.84-4.19,5.84-4.19-1.18-9.15-4-6.85S405.86,384.81,405.86,384.81Z" style="opacity: 0.3; transform-origin: 411.475px 379.163px;" class="animable" id="elkqeq5pc6zz"></path></g><path d="M418.15,362.24c-.93-.49-3.41.53-4.86,1.79-1.92,1.65-2.38,3.88-3.36,6.5-1.05,2.8-2.95,6.64-4.48,7.5s-4.34.06-6.66.05-4.11,1.05-4.24,2.74c-.06,1.33,6,4.38,9.76,4.54,3.16.13,4.23.67,6-3.95s2.41-7.22,3.79-4.08S416,387,416,387a2,2,0,0,0,2.79.07,61.27,61.27,0,0,1,.4-6.89c.4-2.84,1.91-7.3,1.72-10.72S419.07,362.7,418.15,362.24Z" style="fill: rgb(38, 50, 56); transform-origin: 407.738px 374.859px;" id="el9ot0mwwkdyb" class="animable"></path><path d="M468.75,374.21s1.45.71,4.24-3.37a8,8,0,0,0,1.45-2.7,21.36,21.36,0,0,1-.62-5.62c.23-2.88-4.85-3.86-5.46-1.87C467.3,364.13,468.75,374.21,468.75,374.21Z" style="fill: #AEDCFF; transform-origin: 471.206px 366.931px;" id="elzjdz90nysqp" class="animable"></path><g id="elut9pxg1igy"><path d="M468.75,374.21s1.45.71,4.24-3.37a8,8,0,0,0,1.45-2.7,21.36,21.36,0,0,1-.62-5.62c.23-2.88-4.85-3.86-5.46-1.87C467.3,364.13,468.75,374.21,468.75,374.21Z" style="opacity: 0.3; transform-origin: 471.206px 366.931px;" class="animable" id="elvgffgibybk7"></path></g><path d="M466.39,348.61c-1.05.11-2.53,2.34-3.05,4.19-.67,2.44.19,4.55.83,7.27.69,2.91,1.26,7.16.46,8.73s-3.57,2.47-5.5,3.75-2.83,3.16-2,4.63c.69,1.14,7.39.33,10.63-1.66,2.7-1.65,3.89-1.8,2.77-6.61s-2-7.34.88-5.5,7,7,7,7a2,2,0,0,0,2.35-1.51,60.19,60.19,0,0,1-3.5-5.94c-1.25-2.58-2.48-7.13-4.55-9.86S467.41,348.48,466.39,348.61Z" style="fill: rgb(38, 50, 56); transform-origin: 468.79px 363.152px;" id="els67ramfs15" class="animable"></path><path d="M442.29,202.58a8.2,8.2,0,0,0-7.63-5.91s-6.72-.22-11.14.17a35.56,35.56,0,0,0-9.38,1.84l-3.84,3.7c-1.77,2.22-4.93,12.19-4.86,29.33,0,3.29-.41,7.32,2.32,8.19,6.41,3.56,22.26,5.15,34.22-1.65,1.74-1.3,1.47-11.41,1.41-16C443.3,216.11,443.08,204.93,442.29,202.58Z" style="fill: #AEDCFF; transform-origin: 424.43px 219.784px;" id="eljsyqooz8yid" class="animable"></path><g id="el4d07yzhz6zk"><path d="M411.31,216l.3-3.73-.53-.05-.3,3.74c-1,12.86-1.66,21.58-.87,25l.59.23C409.55,238,410.41,227.27,411.31,216Z" style="opacity: 0.15; transform-origin: 410.585px 226.705px;" class="animable" id="elddnbgbzllz"></path></g><path d="M414.14,198.68s-2.61,0-10.7,4.41c-5.35,2.93-16.11,8.45-20.58,10.54-3.36-2.81-16.69-14-17.22-15.06-.6-1.25.41-3.22.93-4.32s1.56-3.56,2-4.21c.76-1.15-1.18-1.27-2.57-.37s-2.45,3.07-3.1,3.33-3.6-5.56-5-8.37-2-4.66-3.57-4c-1.15.45-.86,2,.09,4.31a25.87,25.87,0,0,1,1.21,3.08c.09.4-.52.55-.77.69-.48.25-1.32.65-1.51,1.19a4.51,4.51,0,0,1-.28.88c-.35.61-1.24.71-1.63,1.3-.28.42-.23,1-.45,1.46-.13.29-.38.53-.51.83a2.24,2.24,0,0,0,.22,1.86c1,2,2.77,3.17,4.37,4.66,1.34,1.24,2.84,2,4.42,3.25s18.4,21.55,22.18,22.28a6.51,6.51,0,0,0,3.52-.34c3.36-1,17.44-6.7,24.41-9.15,5.35-2.75,7-3.79,8.14-11.72C418.24,201.32,414.14,198.68,414.14,198.68Z" style="fill: rgb(255, 168, 167); transform-origin: 384.076px 203.51px;" id="elgmv9k8ya6zt" class="animable"></path><path d="M411.34,168.3a2.7,2.7,0,0,1,.33-1.37,1.56,1.56,0,0,1,1.87-.75,6.14,6.14,0,0,1-.82-2.11,2,2,0,0,1,.83-2,3.2,3.2,0,0,1,1.77-.25c3.73.12,7.4-.86,11.11-1.31s7.72-.3,10.81,1.81a8.67,8.67,0,0,1,3.47,4.36,5.38,5.38,0,0,1,.35,2.54,7.1,7.1,0,0,0-.39,2.54,31.75,31.75,0,0,1,.42,4.46c.24,6.17-14.08,10.18-13.8,14.41l-7.63-9.29c0-.39-1.08-1.35-1.32-1.68-.46-.61-.87-1.26-1.29-1.9-1.88-2.87-5.1-5.11-5.64-8.69A5,5,0,0,1,411.34,168.3Z" style="fill: rgb(38, 50, 56); transform-origin: 426.216px 175.466px;" id="eln249kdp67za" class="animable"></path><path d="M412.9,177.9s-2.48,3.68-2.15,4.07a5.88,5.88,0,0,0,1.89.8Z" style="fill: rgb(242, 143, 143); transform-origin: 411.81px 180.335px;" id="el3swww5auliy" class="animable"></path><path d="M420.46,166.26c-2.41,1.22-6.56,3.48-7.63,12.18-1.1,8.94.92,12,2.16,13.21.84.79,5.16,1.08,7.41.39,2.82-.86,8.92-3.82,11.78-8.43,3.37-5.43,4.07-12.66.18-15.5C428.89,164.12,422.49,165.23,420.46,166.26Z" style="fill: rgb(255, 168, 167); transform-origin: 424.758px 178.86px;" id="elpopohoadgag" class="animable"></path><path d="M415.23,191.81c1,.56,3.88.79,6,.48l-.07-1.61a15.11,15.11,0,0,1-2.85.93A9.94,9.94,0,0,1,415.23,191.81Z" style="fill: rgb(242, 143, 143); transform-origin: 418.23px 191.554px;" id="el1sm2dey9jpk" class="animable"></path><path d="M448.71,164.38a6.74,6.74,0,0,0-9.07-2.94c-2,1-2.2,2.4-1.64,4.07a11.1,11.1,0,0,0-2-1.07,9.49,9.49,0,0,0-1-.3,20.83,20.83,0,0,0-9.74-.21,21.2,21.2,0,0,0-4.65,1.56l-1.14.51a9.3,9.3,0,0,0-2.8,1.61,3.83,3.83,0,0,0-1,1.27,3.06,3.06,0,0,0-.2,1.44,3.85,3.85,0,0,0,2.25,3.1,3.75,3.75,0,0,0-.61,3.11,7.49,7.49,0,0,0,2.21,3.18.46.46,0,0,0,.18.13.5.5,0,0,0,.4-.12c1.51-1,2.44-2.75,4.57-2.05,2.8.92,2.77,5.51.35,7.14a2.19,2.19,0,0,1-2.38.08s.75,6.94-1,8.82c-1.9,2.07-5.26,1.34-5.26,1.34s1.57,7.63,13,6.48c9.66-1,10.17-7,10.17-7a6.78,6.78,0,0,1-2.32,6.05s7.22.68,9.42-4.81c1.65-4.11-2.06-6.87-3-12.08-.38-2.12.51-6.32.35-9.73a3.71,3.71,0,0,0,2-.5A6.73,6.73,0,0,0,448.71,164.38Z" style="fill: rgb(38, 50, 56); transform-origin: 432.458px 181.175px;" id="elrq6ck8jdibb" class="animable"></path><path d="M419.08,182.86a2.06,2.06,0,0,1-1.27-2.66,2.13,2.13,0,0,1,2.71-1.25Z" style="fill: rgb(38, 50, 56); transform-origin: 419.102px 180.843px;" id="elwfkxiuxhmj" class="animable"></path></g></g><defs>     <filter id="active" height="200%">         <feMorphology in="SourceAlpha" result="DILATED" operator="dilate" radius="2"></feMorphology>                <feFlood flood-color="#32DFEC" flood-opacity="1" result="PINK"></feFlood>        <feComposite in="PINK" in2="DILATED" operator="in" result="OUTLINE"></feComposite>        <feMerge>            <feMergeNode in="OUTLINE"></feMergeNode>            <feMergeNode in="SourceGraphic"></feMergeNode>        </feMerge>    </filter>    <filter id="hover" height="200%">        <feMorphology in="SourceAlpha" result="DILATED" operator="dilate" radius="2"></feMorphology>                <feFlood flood-color="#ff0000" flood-opacity="0.5" result="PINK"></feFlood>        <feComposite in="PINK" in2="DILATED" operator="in" result="OUTLINE"></feComposite>        <feMerge>            <feMergeNode in="OUTLINE"></feMergeNode>            <feMergeNode in="SourceGraphic"></feMergeNode>        </feMerge>            <feColorMatrix type="matrix" values="0   0   0   0   0                0   1   0   0   0                0   0   0   0   0                0   0   0   1   0 "></feColorMatrix>    </filter></defs></svg>